<?xml version="1.0" standalone="no"?>
<!DOCTYPE svg PUBLIC "-//W3C//DTD SVG 20010904//EN"
 "http://www.w3.org/TR/2001/REC-SVG-20010904/DTD/svg10.dtd">
<svg version="1.0" xmlns="http://www.w3.org/2000/svg"
 width="460.000000pt" height="460.000000pt" viewBox="0 0 460.000000 460.000000"
 preserveAspectRatio="xMidYMid meet">
<metadata>
Created by potrace 1.14, written by Peter Selinger 2001-2017
</metadata>
<g transform="translate(0.000000,460.000000) scale(0.100000,-0.100000)"
fill="#000000" stroke="none">
<path d="M2180 4432 c-81 -10 -243 -46 -309 -68 -102 -35 -252 -109 -328 -161
-35 -24 -65 -43 -68 -43 -3 0 -13 -8 -23 -17 -10 -10 -44 -40 -76 -68 -74 -63
-128 -120 -240 -249 -37 -44 -166 -309 -166 -342 0 -8 -4 -14 -10 -14 -5 0
-10 -7 -10 -15 0 -20 -38 -142 -58 -185 -8 -19 -15 -40 -14 -46 1 -7 -3 -25
-10 -40 -6 -16 -13 -38 -15 -49 -6 -34 -15 -99 -16 -127 -2 -23 -7 -28 -27
-28 l-24 0 22 -16 c21 -14 33 -42 13 -29 -5 3 -12 -4 -16 -15 -7 -23 -21 -26
-28 -7 -3 7 -6 6 -6 -5 -1 -9 -6 -20 -13 -24 -7 -5 -9 -2 -6 8 4 8 2 21 -3 29
-7 11 -11 11 -21 1 -10 -10 -10 -14 1 -21 8 -5 9 -11 3 -15 -5 -3 -13 2 -16
11 -6 14 -9 15 -15 4 -6 -9 -11 -10 -15 -2 -10 15 -27 14 -24 -1 2 -9 -12 -14
-40 -16 -26 -2 -42 1 -38 6 3 5 -3 12 -14 15 -14 3 -20 0 -20 -10 0 -12 -7
-14 -29 -10 -24 5 -31 2 -36 -13 -6 -18 -8 -18 -21 -5 -9 8 -13 18 -10 23 8
13 -40 8 -57 -6 -9 -8 -22 -10 -28 -6 -9 5 -10 2 -5 -11 7 -18 6 -18 -14 0
-11 10 -20 13 -20 8 0 -19 -39 -22 -43 -4 -3 11 -5 9 -6 -6 -1 -24 -20 -33
-22 -10 0 6 -4 4 -8 -7 -7 -17 -8 -17 -24 -2 -16 16 -17 16 -18 -1 -1 -13 -3
-11 -9 7 l-8 25 -1 -24 c-1 -24 -1 -24 -16 -5 -11 14 -14 15 -9 3 3 -10 1 -20
-5 -24 -6 -3 -11 -1 -11 4 0 6 -12 11 -26 11 -14 0 -23 -4 -19 -10 3 -5 1 -10
-5 -10 -7 0 -10 -6 -7 -14 3 -8 0 -16 -7 -19 -8 -3 -12 4 -12 21 1 14 -5 27
-12 30 -7 2 -11 -2 -10 -10 2 -8 -4 -12 -16 -10 -11 2 -15 -1 -11 -7 3 -6 2
-11 -4 -11 -5 0 -12 6 -14 13 -3 6 -6 2 -6 -10 -1 -16 5 -23 18 -23 11 0 23
-9 26 -20 4 -11 11 -18 16 -15 5 4 9 1 9 -5 0 -16 72 0 88 19 11 15 12 14 6 0
-3 -10 -1 -20 5 -24 6 -3 11 2 12 12 0 16 1 16 9 -2 8 -19 9 -19 9 3 1 12 6
22 12 22 5 0 7 -4 4 -10 -4 -6 17 -10 55 -10 46 0 60 3 55 13 -4 6 3 1 14 -13
17 -20 21 -22 21 -7 0 9 5 17 10 17 6 0 10 -5 10 -11 0 -6 7 -3 16 5 22 23 33
20 27 -6 -4 -19 -3 -20 6 -8 7 10 11 11 11 3 0 -7 7 -13 15 -13 18 0 20 16 3
23 -10 4 -10 6 -1 6 6 1 15 -3 18 -9 3 -5 13 -10 21 -10 19 0 45 25 36 34 -3
4 1 4 10 1 10 -4 14 -13 11 -23 -4 -12 0 -10 16 6 21 21 48 31 37 13 -4 -5 0
-12 6 -14 8 -3 6 -6 -4 -6 -21 -1 -25 -21 -4 -21 22 0 38 24 24 38 -8 8 -8 12
-2 12 6 0 16 -10 23 -22 7 -14 9 -15 6 -5 -4 15 -1 17 16 12 15 -5 19 -4 14 5
-5 8 -1 8 13 -1 12 -7 18 -18 16 -24 -3 -5 4 1 15 14 l21 23 1 -23 c0 -23 1
-23 9 -4 7 17 9 16 10 -10 1 -25 3 -27 9 -10 5 11 6 26 4 33 -3 6 0 12 6 12 6
0 11 -3 11 -7 1 -5 3 -31 6 -59 6 -55 -1 -71 -72 -178 -20 -31 -40 -53 -45
-50 -5 3 -6 -1 -4 -8 3 -8 -2 -23 -12 -33 -10 -11 -36 -42 -57 -69 -72 -89
-94 -109 -111 -102 -12 4 -15 1 -13 -14 2 -10 -1 -18 -7 -17 -5 1 -9 5 -8 8 1
4 -7 9 -17 12 -24 6 -25 1 -5 -19 8 -9 15 -21 15 -27 0 -7 -4 -7 -9 2 -10 16
-51 23 -51 9 0 -4 9 -8 20 -8 33 0 23 -24 -32 -75 -46 -42 -52 -52 -51 -86 0
-22 -3 -39 -8 -39 -5 0 -9 -5 -9 -11 0 -5 5 -7 10 -4 9 5 15 -23 11 -47 0 -5
3 -8 9 -8 5 0 10 -9 10 -21 0 -12 7 -37 16 -57 9 -21 22 -50 29 -67 8 -16 11
-33 8 -39 -3 -5 -2 -7 3 -4 10 7 27 -11 32 -32 2 -8 10 -22 18 -31 8 -8 14
-21 14 -28 0 -7 4 -10 10 -6 13 8 53 -72 43 -88 -5 -9 -4 -9 8 0 12 10 18 9
31 -6 18 -21 8 -48 -13 -36 -9 6 -11 3 -6 -9 4 -10 7 -20 7 -23 0 -3 7 0 15 7
12 10 15 10 15 -4 0 -9 3 -16 8 -16 4 0 9 44 10 98 1 53 7 120 12 147 13 69
18 105 19 138 1 15 5 27 10 27 6 0 8 -28 6 -65 -2 -35 0 -67 5 -70 15 -9 12
-37 -2 -30 -7 4 -6 1 3 -7 9 -7 24 -40 34 -73 11 -33 29 -79 42 -102 13 -24
18 -45 13 -48 -6 -4 -10 0 -10 8 0 7 -7 14 -15 14 -8 0 -15 -5 -15 -10 0 -6
-18 -7 -45 -4 -34 5 -43 3 -39 -6 3 -9 27 -13 77 -12 l72 0 27 -37 c29 -39 40
-76 12 -42 -14 18 -15 18 -8 -5 l6 -24 -33 26 c-30 23 -36 24 -53 11 -11 -8
-21 -21 -22 -30 -3 -20 -34 -54 -34 -37 0 6 5 13 10 15 6 2 13 16 16 31 4 24
3 26 -10 15 -7 -7 -12 -16 -10 -20 2 -4 -1 -10 -7 -14 -7 -4 -9 -3 -6 3 4 6 0
14 -9 17 -8 3 -13 2 -10 -2 3 -5 0 -9 -7 -9 -7 0 -13 14 -13 31 -1 17 1 23 3
13 2 -9 8 -15 13 -12 10 6 -8 65 -20 65 -5 0 -14 -8 -19 -17 -10 -17 -10 -17
-11 0 0 9 -5 17 -10 17 -7 0 -7 -7 0 -20 6 -11 8 -25 5 -30 -3 -5 -1 -11 5
-15 12 -7 14 -52 3 -58 -5 -3 -17 -1 -28 4 -19 7 -19 8 3 8 21 1 33 31 11 31
-5 0 -7 -4 -4 -10 3 -5 2 -10 -3 -10 -14 0 -33 58 -22 65 5 3 11 -5 13 -17 4
-16 5 -13 4 7 -2 23 -6 30 -22 28 -18 -1 -18 0 -4 10 9 7 14 18 11 25 -3 10
-8 8 -18 -5 -13 -17 -13 -17 -14 0 0 9 4 17 9 17 5 0 11 9 14 21 3 12 10 18
16 14 7 -4 8 0 5 10 -5 13 -9 13 -24 -5 -15 -18 -18 -18 -24 -4 -3 8 -12 14
-19 11 -6 -2 -20 0 -29 5 -11 5 -18 5 -18 -1 0 -5 6 -11 13 -14 6 -2 0 -8 -15
-12 -15 -4 -35 -2 -45 4 -10 6 -12 11 -5 11 6 0 12 10 11 23 -1 28 -27 98 -28
75 -1 -14 -6 -16 -24 -9 -16 6 -26 4 -36 -7 -13 -14 -16 -13 -24 6 -11 24 -40
38 -45 23 -2 -6 -8 -11 -13 -11 -6 0 -6 8 1 19 13 26 13 42 -1 38 -6 -1 -14 5
-16 13 -4 13 -3 13 7 0 9 -13 10 -12 7 5 -2 11 -9 19 -15 18 -7 -2 -13 9 -13
25 -1 24 -2 23 -8 -7 -3 -19 -12 -36 -19 -37 -7 -1 -8 0 -2 3 17 8 11 26 -8
21 -15 -4 -18 0 -15 26 2 29 2 29 -6 6 -9 -24 -14 -14 -12 20 0 8 -5 3 -12
-12 -10 -22 -16 -25 -25 -16 -7 7 -12 19 -12 27 0 11 -4 10 -16 -5 -8 -10 -13
-14 -11 -9 2 6 1 19 -4 30 l-9 20 1 -20 c2 -40 -1 -55 -12 -55 -6 0 -9 9 -6
20 8 30 -29 48 -38 19 -4 -11 -4 -23 -1 -26 3 -4 6 1 6 10 0 10 4 17 9 17 6 0
9 -9 8 -20 -1 -11 -7 -20 -14 -20 -7 0 -13 -5 -13 -11 0 -6 9 -9 20 -6 11 3
20 1 20 -4 0 -5 -9 -9 -19 -9 -14 0 -18 -7 -17 -24 0 -13 4 -22 7 -20 4 2 22
-4 40 -13 55 -27 69 -25 63 11 -4 19 -2 26 3 19 5 -6 21 -10 36 -9 22 3 27 -1
27 -18 0 -17 -2 -18 -10 -6 -13 20 -13 4 1 -22 13 -25 11 -27 -53 -49 -29 -10
-44 -19 -33 -20 11 0 0 -7 -25 -15 l-45 -13 40 4 c23 2 47 -1 55 -6 12 -8 11
-9 -5 -5 -17 5 -20 2 -19 -22 1 -15 3 -29 3 -31 1 -2 10 4 21 14 26 23 37 13
16 -16 -10 -15 -12 -27 -6 -40 7 -13 6 -17 -5 -15 -24 3 -39 22 -25 31 7 4 3
14 -12 27 -16 14 -19 22 -10 25 19 7 14 23 -8 23 -11 0 -20 -7 -20 -15 0 -9
-9 -26 -21 -38 l-20 -22 32 -6 c17 -4 39 -14 48 -23 15 -15 14 -16 -17 -5 -18
6 -39 8 -47 5 -17 -6 -21 -36 -5 -36 6 0 10 5 10 10 0 13 37 13 45 0 3 -5 -3
-10 -14 -10 -10 0 -27 -3 -36 -6 -13 -5 -14 -8 -3 -15 10 -7 10 -9 1 -9 -17 0
-17 -62 -1 -78 7 -7 8 -12 2 -12 -7 0 -11 -32 -12 -80 -1 -62 2 -81 14 -88 9
-5 14 -13 12 -18 -1 -5 9 -9 25 -9 26 -1 32 9 28 43 -2 14 16 17 21 2 2 -6 8
-6 18 0 13 8 12 10 -3 10 -10 0 -16 4 -12 9 3 5 1 12 -5 16 -5 3 -10 1 -10 -4
0 -6 -7 -11 -16 -11 -14 0 -14 2 1 16 9 9 14 22 12 29 -3 6 -1 18 4 26 7 11 9
9 9 -8 0 -13 5 -23 10 -23 6 0 10 11 10 25 0 15 8 29 23 36 19 10 20 10 11 -2
-12 -14 -27 -79 -19 -79 2 0 9 15 14 33 l9 32 1 -30 c1 -18 4 -25 9 -18 5 7
11 -1 18 -23 8 -24 8 -34 0 -35 -6 -1 0 -5 14 -9 24 -8 24 -8 -7 -9 -22 -1
-33 4 -36 17 -2 9 -3 7 -2 -5 1 -12 -4 -24 -12 -27 -23 -9 -26 -7 -13 9 11 13
10 14 -4 9 -9 -3 -16 -11 -16 -18 0 -6 -5 -4 -11 4 -9 12 -10 11 -6 -7 5 -23
-2 -27 -33 -24 -12 1 -12 0 -2 -7 7 -5 12 -13 11 -18 -4 -22 2 -44 12 -44 5 0
8 4 5 8 -3 5 8 9 25 9 17 0 25 -4 18 -8 -9 -5 -8 -8 2 -12 8 -2 6 -3 -4 -1
-13 2 -17 -2 -13 -13 3 -8 6 -20 6 -26 0 -8 4 -7 9 2 9 13 35 6 27 -7 -2 -4 1
-16 5 -27 7 -15 8 -10 5 18 -3 22 -1 35 5 32 5 -4 9 -19 9 -34 0 -32 27 -39
28 -7 2 59 17 90 38 82 8 -3 14 -1 14 5 0 7 -12 9 -29 7 -37 -5 -31 6 9 20 27
10 30 9 31 -11 0 -21 1 -21 9 -2 7 16 9 11 9 -22 1 -24 -4 -43 -11 -46 -7 -3
-5 -6 6 -6 17 -1 18 5 13 59 -3 33 -1 60 4 60 5 0 9 7 9 16 0 8 -4 12 -10 9
-5 -3 -10 1 -10 9 0 22 -20 20 -21 -1 0 -11 -3 -13 -6 -5 -2 6 -9 10 -14 6 -5
-3 -9 0 -9 5 0 6 -6 11 -14 11 -8 0 -16 7 -20 15 -3 8 0 14 7 12 8 -1 13 15
15 45 2 27 7 48 12 48 5 0 7 -7 4 -15 -4 -10 0 -15 12 -15 16 0 17 -2 4 -11
-11 -8 -5 -9 23 -4 26 4 37 3 32 -4 -3 -7 0 -8 9 -5 10 4 17 1 17 -7 1 -8 3
-25 5 -39 2 -14 4 -40 5 -57 1 -19 8 -33 15 -33 8 0 11 -9 8 -24 -2 -15 2 -26
11 -30 8 -3 15 0 15 6 0 9 3 9 12 0 17 -17 28 -15 28 4 0 14 1 14 16 0 8 -9
21 -13 27 -9 26 17 77 12 91 -8 12 -18 14 -18 20 -4 8 23 8 27 -3 20 -15 -9
-25 15 -12 28 9 9 11 8 6 -4 -5 -14 0 -16 30 -13 22 2 33 -1 29 -7 -3 -6 -12
-8 -19 -5 -15 5 -40 -54 -27 -63 5 -3 12 -17 15 -31 6 -24 5 -24 -8 -6 -18 23
-20 13 -4 -16 6 -12 7 -18 1 -14 -5 3 -12 -1 -16 -9 -3 -8 0 -15 7 -15 9 0 8
-3 -1 -9 -8 -4 -14 -12 -14 -17 0 -14 -17 -41 -18 -29 -1 6 -5 1 -10 -10 -7
-17 -9 -17 -9 -2 -1 18 -16 23 -25 8 -9 -14 5 -42 17 -34 6 3 7 1 3 -5 -9 -15
-46 7 -39 23 2 7 -2 15 -10 18 -10 4 -13 -1 -12 -18 2 -18 -1 -22 -16 -18 -10
3 -19 10 -19 15 0 5 5 6 10 3 6 -3 10 2 10 12 0 19 -37 49 -48 39 -3 -3 0 -6
6 -6 7 0 12 -4 12 -9 0 -13 -59 -7 -65 7 -2 6 -9 12 -15 12 -6 0 -8 -5 -5 -10
3 -6 -2 -10 -12 -11 -10 -1 -2 -5 17 -10 19 -4 40 -6 47 -4 7 2 10 -2 6 -10
-3 -8 -9 -12 -14 -9 -6 3 -15 1 -22 -4 -22 -17 -68 -21 -74 -6 -3 8 -13 14
-22 15 -12 0 -10 3 5 9 12 4 24 16 28 25 3 9 10 13 16 10 6 -3 7 1 4 10 -6 14
-9 13 -21 -5 -10 -14 -22 -20 -34 -17 -11 3 -19 1 -19 -4 0 -5 -11 -19 -24
-30 -14 -12 -23 -26 -22 -33 2 -6 1 -8 -1 -3 -3 4 -9 4 -15 1 -6 -4 -8 2 -6
12 2 11 9 19 16 19 6 0 12 5 12 10 0 6 -9 9 -20 9 -15 -1 -18 2 -10 11 8 9 6
14 -6 19 -26 10 -46 7 -38 -6 4 -6 3 -8 -4 -5 -5 4 -8 17 -6 30 2 12 2 16 -2
9 -7 -14 -24 -6 -24 11 0 7 11 14 25 15 19 1 25 -3 25 -18 0 -11 5 -20 11 -20
5 0 7 5 3 12 -4 6 2 18 12 26 16 12 16 14 2 9 -10 -3 -20 -2 -23 2 -2 5 -18 7
-35 6 -16 -1 -30 2 -30 7 0 5 -5 6 -11 2 -8 -4 -9 1 -4 16 7 21 7 22 -12 3
-12 -12 -15 -21 -9 -25 7 -5 8 -8 1 -8 -6 0 -19 9 -28 21 -10 11 -21 18 -25
14 -4 -3 1 -11 11 -16 9 -6 15 -14 12 -20 -4 -5 -1 -9 4 -9 6 0 11 -5 11 -11
0 -6 -9 -8 -22 -4 -23 7 -23 7 -3 -9 l20 -15 -20 -1 c-14 -1 -10 -6 15 -16
l35 -14 -32 6 -32 5 -1 -420 -1 -421 360 0 c278 0 360 3 364 13 4 9 6 9 6 0 1
-7 10 -13 21 -13 11 0 20 6 20 13 0 9 2 9 8 0 7 -11 192 -17 192 -6 0 2 -5 13
-10 24 -9 16 -14 17 -32 8 -11 -6 -18 -7 -15 -2 4 5 0 10 -7 10 -8 0 -12 -7
-9 -16 3 -12 2 -12 -7 2 -6 9 -8 22 -4 29 4 7 3 8 -4 4 -7 -4 -12 -15 -12 -24
0 -13 -2 -14 -8 -4 -5 7 -16 10 -25 6 -13 -5 -16 -2 -11 10 7 19 -7 21 -23 5
-9 -9 -12 -7 -10 8 1 18 5 19 31 12 34 -10 49 -4 16 6 -20 7 -20 8 11 31 17
13 36 21 40 18 5 -3 9 -1 9 4 0 4 24 19 53 32 28 13 58 29 65 36 7 7 20 10 29
7 9 -4 14 -2 10 3 -6 11 113 74 138 74 8 0 15 4 15 8 0 13 195 102 222 102 34
0 90 -62 132 -147 29 -58 35 -80 31 -112 -2 -22 0 -43 5 -46 6 -3 7 2 4 12 -5
16 -4 16 10 -1 9 -11 17 -28 17 -38 3 -39 18 -68 35 -68 17 0 17 -5 -3 61 -9
30 -17 56 -18 59 -1 3 -7 18 -13 33 -7 16 -12 31 -12 34 0 3 -12 31 -27 62
-38 78 -88 138 -134 161 -24 13 -36 25 -33 34 3 7 31 31 62 52 31 21 59 41 62
44 3 3 21 17 40 30 19 14 40 28 45 33 53 42 132 97 142 97 9 0 9 -10 -1 -42
-12 -41 -11 -46 17 -90 16 -27 33 -48 38 -48 5 0 9 -6 9 -14 0 -8 4 -16 8 -18
5 -1 39 -41 76 -87 91 -113 84 -105 144 -163 29 -29 50 -58 48 -64 -3 -8 0
-11 8 -8 17 7 50 -32 42 -51 -4 -10 2 -18 16 -24 l21 -8 -24 -16 c-13 -9 -18
-17 -12 -17 7 0 15 5 18 10 11 18 21 11 34 -25 l12 -35 489 0 488 0 -2 24 c0
13 -3 22 -6 19 -3 -2 -14 33 -26 79 -14 57 -18 89 -11 102 6 12 6 16 -1 12 -8
-5 -14 11 -28 76 -7 30 57 12 206 -60 30 -15 56 -30 58 -34 2 -4 10 -4 18 -1
8 3 14 1 14 -5 0 -5 12 -13 26 -16 14 -4 43 -18 65 -31 21 -14 43 -25 49 -25
6 0 8 -4 5 -10 -3 -6 1 -7 9 -4 9 3 16 1 16 -6 0 -6 5 -8 10 -5 6 4 6 -4 -1
-19 -7 -14 -17 -22 -25 -19 -8 3 -14 0 -14 -6 0 -14 27 -14 35 0 4 6 13 8 21
5 8 -3 14 -1 14 4 0 6 -5 10 -12 10 -6 0 -8 3 -4 7 11 11 56 -48 55 -71 -2
-20 -2 -20 -6 2 -6 30 -21 28 -19 -3 l1 -24 473 -1 472 0 0 996 c0 843 -3
1002 -15 1028 -19 41 -47 131 -76 241 -21 79 -24 112 -24 272 1 100 4 185 8
189 11 11 34 -13 55 -59 11 -23 27 -51 36 -62 15 -19 15 -19 16 -1 0 11 -17
42 -38 70 -58 80 -66 99 -54 137 6 19 14 54 17 79 4 25 11 50 15 55 4 6 11 26
15 45 4 19 13 45 21 57 7 12 16 41 19 65 l6 43 -25 -59 c-14 -33 -29 -62 -33
-65 -5 -3 -14 -17 -21 -31 -22 -45 -69 -122 -74 -123 -4 -1 -23 30 -44 68 -96
179 -124 241 -124 271 0 44 60 225 103 310 37 72 65 106 107 124 23 10 23 10
-8 5 -32 -4 -106 -68 -94 -80 11 -11 -15 -4 -28 8 -12 10 -12 9 -1 -6 12 -15
10 -20 -12 -41 -15 -14 -29 -21 -32 -16 -5 8 12 25 33 31 10 3 7 10 -10 24
-15 13 -18 14 -10 3 8 -10 9 -19 3 -22 -5 -4 -12 -2 -16 4 -3 5 -12 10 -18 10
-8 0 -8 -3 2 -9 8 -5 9 -11 3 -15 -5 -3 -12 1 -16 9 -3 8 -10 15 -16 15 -6 0
-8 -4 -5 -10 3 -5 2 -10 -4 -10 -5 0 -11 6 -14 13 -2 6 -8 9 -12 5 -4 -4 -2
-14 5 -23 11 -13 9 -15 -10 -12 -13 2 -28 10 -34 19 -17 23 -44 19 -38 -5 3
-14 1 -18 -6 -13 -7 4 -12 11 -12 16 0 5 -16 26 -35 47 -19 21 -35 44 -35 51
0 6 -4 12 -9 12 -5 0 -12 8 -15 18 -3 9 -16 28 -28 42 -13 14 -36 42 -51 62
-34 47 -185 204 -189 198 -17 -27 -28 -52 -27 -62 0 -7 4 -3 9 10 5 12 13 22
18 22 18 0 84 -70 79 -84 -4 -10 1 -12 16 -9 18 4 19 3 7 -6 -13 -9 -13 -11 3
-11 9 0 17 -5 17 -11 0 -5 4 -8 9 -4 5 3 12 -4 16 -15 3 -11 10 -20 15 -20 4
0 6 -8 3 -19 -3 -10 1 -22 8 -27 9 -5 10 -2 5 11 -7 18 -6 18 14 0 11 -10 18
-25 16 -32 -3 -7 -1 -12 5 -10 5 1 17 -11 27 -28 9 -16 23 -35 30 -43 15 -16
16 -32 2 -32 -5 0 -10 5 -10 10 0 6 -4 10 -8 10 -5 0 -8 -10 -6 -22 1 -13 3
-26 3 -30 1 -5 6 -8 12 -8 8 0 8 5 -1 15 -11 13 -8 15 14 15 23 0 31 -9 27
-33 -1 -5 3 -6 8 -3 10 7 21 -16 21 -47 0 -15 3 -18 8 -9 6 8 13 1 22 -23 8
-19 17 -35 21 -35 3 0 12 -15 19 -32 6 -18 20 -49 31 -69 10 -20 20 -52 23
-71 2 -20 9 -45 15 -56 14 -26 14 -35 1 -27 -6 3 -10 -4 -9 -17 0 -13 3 -17 6
-10 2 6 9 12 14 12 6 0 7 -4 4 -10 -3 -5 -1 -10 6 -10 7 0 10 -11 7 -29 -2
-17 0 -27 5 -24 5 3 6 -4 2 -16 -4 -12 -2 -21 4 -21 6 0 7 -7 4 -17 -5 -12 -3
-14 7 -8 10 6 12 0 8 -24 -2 -17 -1 -31 4 -31 4 0 8 -13 8 -30 0 -16 5 -30 10
-30 6 0 10 -17 10 -37 0 -21 5 -58 11 -82 13 -56 20 -170 9 -150 -9 16 -25
118 -21 137 1 6 -3 12 -10 12 -6 0 -9 6 -6 14 3 7 2 17 -3 22 -4 5 -10 25 -13
45 -2 19 -9 45 -16 56 -6 12 -11 31 -11 42 0 12 -5 21 -11 21 -5 0 -8 4 -4 9
3 5 1 12 -5 16 -6 4 -8 11 -5 16 4 5 2 9 -3 9 -6 0 -13 12 -17 27 -10 40 -46
117 -58 125 -7 4 -8 10 -4 14 4 4 13 2 19 -4 7 -7 16 -12 21 -12 5 0 -7 15
-27 34 -33 30 -36 36 -26 62 9 26 8 27 -4 11 -13 -16 -14 -16 -28 5 -8 13 -18
33 -22 46 -4 12 -11 22 -16 22 -4 0 -10 8 -14 18 -3 9 -11 25 -18 35 -11 14
-10 19 2 28 12 9 12 10 -4 5 -14 -5 -17 -2 -12 10 5 14 4 15 -8 5 -12 -11 -14
-7 -11 21 2 18 1 27 -2 20 -6 -16 -33 3 -33 24 0 8 -7 14 -15 14 -8 0 -15 5
-15 12 0 6 -8 20 -17 31 -17 19 -17 19 7 12 21 -7 23 -6 13 7 -10 11 -10 17
-1 26 7 7 9 12 4 12 -4 0 -14 -7 -23 -15 -14 -14 -18 -13 -39 12 -14 17 -22
36 -19 48 3 11 2 14 -1 8 -7 -16 -24 -17 -24 -1 0 6 -18 29 -41 50 -22 21 -36
38 -30 38 6 0 11 7 11 15 0 8 -4 15 -10 15 -5 0 -10 -5 -10 -10 0 -6 -8 -5
-20 2 -11 7 -20 18 -20 25 0 7 -9 13 -20 13 -21 0 -40 27 -33 48 3 6 0 12 -6
12 -6 0 -11 -5 -11 -11 0 -6 -15 2 -34 18 -19 15 -33 33 -31 38 1 6 -6 12 -18
12 -29 3 -39 24 -22 50 13 20 13 22 0 17 -8 -4 -15 -12 -15 -20 0 -8 -7 -14
-16 -14 -10 0 -14 5 -10 16 3 9 2 12 -4 9 -17 -11 -110 52 -110 73 0 6 -8 9
-17 8 -10 -2 -20 0 -23 3 -3 3 -31 19 -62 35 -31 16 -54 34 -51 39 3 5 -3 6
-15 3 -12 -4 -26 -1 -36 9 -9 9 -28 19 -43 21 -16 3 -32 9 -38 15 -5 5 -17 9
-27 9 -10 0 -18 5 -18 11 0 5 -4 8 -8 5 -8 -5 -80 9 -112 22 -8 3 -17 6 -20 6
-3 1 -10 5 -17 9 -6 4 -18 5 -26 1 -8 -3 -21 2 -30 10 -8 8 -17 12 -21 9 -10
-11 -320 -10 -333 0 -8 6 -13 6 -13 0 0 -11 -109 -11 -127 0 -8 5 -13 4 -13
-2 0 -6 -11 -11 -25 -11 -19 0 -23 4 -19 18 5 15 4 15 -8 1 -19 -23 -67 -30
-77 -12 -7 13 -9 13 -14 0 -4 -10 -18 -15 -46 -14 -23 1 -41 0 -41 -3 0 -3
-21 -7 -46 -8 -26 -1 -53 -7 -60 -13 -11 -9 -14 -8 -14 7 0 17 -1 17 -15 -2
-15 -19 -15 -19 -30 0 -15 19 -15 19 -15 -2 0 -17 -9 -24 -42 -32 -24 -6 -50
-14 -58 -17 -8 -3 -24 -8 -35 -10 -11 -2 -24 -8 -29 -13 -4 -4 -15 -6 -24 -3
-9 4 -13 2 -9 -4 4 -6 -7 -13 -27 -16 -19 -3 -63 -24 -99 -46 -35 -23 -68 -41
-73 -41 -5 0 -17 -9 -27 -20 -9 -11 -24 -20 -32 -20 -9 0 -13 -4 -10 -10 6 -9
-8 -14 -27 -11 -5 0 -8 -6 -8 -14 0 -8 -4 -14 -9 -13 -5 2 -17 -6 -27 -17 -26
-28 -60 -53 -50 -38 5 9 2 11 -8 7 -8 -3 -13 -11 -10 -17 6 -17 -40 -67 -62
-67 -12 0 -15 -3 -7 -8 8 -5 8 -12 -3 -26 -8 -11 -14 -16 -14 -10 -1 5 -8 -4
-16 -19 -8 -15 -19 -25 -25 -22 -5 4 -8 2 -7 -3 3 -11 -17 -45 -43 -73 -10 -9
-29 -37 -44 -62 -19 -33 -31 -44 -43 -41 -12 4 -13 3 -4 -3 12 -9 7 -41 -8
-53 -11 -9 -70 -140 -70 -155 0 -8 -4 -15 -10 -15 -5 0 -10 -5 -10 -11 0 -6
-6 -25 -14 -42 -7 -18 -19 -45 -26 -62 -22 -52 -23 -8 -1 51 12 30 19 60 16
65 -4 5 -1 9 4 9 6 0 10 3 10 8 -4 18 14 71 22 66 5 -3 6 3 2 13 -6 16 -5 17
13 3 17 -14 18 -14 6 2 -11 14 -10 25 10 70 35 83 74 149 82 141 4 -4 4 0 1 9
-7 17 23 78 37 78 4 0 8 6 8 14 0 8 8 13 18 11 9 -1 16 -8 14 -15 -1 -6 2 -9
8 -5 8 5 7 11 -1 21 -9 11 -8 20 5 39 10 15 24 29 32 32 7 3 12 8 10 12 -2 3
6 15 17 26 11 11 17 14 13 8 -4 -7 -2 -13 4 -13 6 0 10 6 9 13 -1 6 -1 19 0
27 1 13 2 13 11 0 5 -8 10 -10 10 -5 0 6 11 23 25 39 14 16 25 26 25 23 0 -4
9 2 21 14 14 14 28 19 42 15 19 -4 20 -3 6 7 -14 11 -14 14 4 32 11 11 17 13
13 5 -5 -9 -2 -8 7 2 8 10 18 14 22 10 5 -4 5 -1 1 6 -6 9 -2 12 10 10 11 -2
18 2 17 9 -3 14 101 84 128 86 10 1 16 4 13 8 -2 4 0 10 6 14 5 3 10 1 10 -6
0 -6 8 -1 19 12 17 21 21 22 37 9 18 -14 18 -14 4 4 -14 18 -13 19 5 12 11 -4
16 -4 12 0 -10 10 103 56 121 49 8 -3 10 0 6 6 -4 8 1 9 16 4 15 -5 20 -4 16
4 -7 10 5 14 46 14 10 0 15 4 11 10 -4 6 4 7 21 3 18 -4 25 -3 21 4 -3 5 -3
10 2 10 4 0 40 6 78 14 107 22 175 27 175 13 0 -9 2 -9 8 -1 4 7 24 14 45 17
66 9 54 18 -18 15 -39 -2 -81 -4 -95 -6z m-446 -704 c-1 -18 -2 -35 -4 -38 -1
-3 -2 -8 -1 -12 0 -5 -3 -8 -9 -8 -5 0 -7 -6 -4 -14 3 -7 -2 -20 -10 -29 -9
-9 -16 -22 -17 -29 0 -10 -2 -10 -6 -1 -5 14 38 163 48 163 3 0 4 -15 3 -32z
m954 -53 c-2 -25 -6 -45 -10 -45 -7 0 -33 -100 -30 -113 1 -5 -2 -6 -7 -3 -5
4 -12 0 -14 -6 -6 -15 -1 51 9 102 5 31 42 110 51 110 2 0 2 -20 1 -45z m883
15 c1 27 31 -76 42 -145 1 -5 -5 -10 -13 -10 -8 0 -15 7 -16 15 0 8 -3 22 -6
30 -16 38 -28 85 -28 104 0 17 2 18 10 6 9 -13 10 -13 11 0z m-1378 -32 c-3
-15 -9 -25 -14 -23 -4 3 -3 17 3 30 14 31 18 28 11 -7z m759 -75 c97 -316 127
-444 163 -703 8 -58 17 -118 20 -135 2 -16 5 -85 6 -153 1 -90 -2 -127 -12
-139 -10 -12 -10 -15 -1 -9 9 5 12 -6 12 -47 l0 -55 -47 -8 c-27 -4 -40 -9
-30 -11 23 -6 22 -12 -14 -61 -35 -48 -33 -62 5 -36 15 9 29 14 32 11 3 -3 -2
-29 -11 -58 -25 -73 -24 -191 0 -252 18 -43 24 -49 69 -62 66 -20 150 -19 181
1 42 27 107 149 120 225 9 49 -5 116 -31 155 -32 47 -30 54 14 54 40 -1 82
-28 82 -55 0 -12 4 -14 17 -7 18 11 59 -3 66 -22 2 -6 -2 -33 -9 -61 -18 -69
-17 -84 3 -56 23 34 73 139 73 155 0 9 15 16 43 18 23 3 50 8 60 12 26 12 22
-10 -17 -91 -19 -40 -49 -116 -66 -170 -18 -54 -35 -105 -38 -113 -7 -21 -9
-29 -21 -80 -5 -25 -21 -92 -35 -150 -14 -58 -26 -114 -26 -124 0 -11 -18 -56
-39 -100 -29 -59 -58 -99 -106 -148 -72 -71 -61 -65 -589 -343 -121 -63 -132
-67 -177 -62 -52 6 -150 48 -239 102 -30 18 -82 47 -115 65 -58 31 -91 52
-275 173 -110 72 -182 143 -247 242 -29 44 -56 85 -62 91 -26 31 -42 79 -37
108 3 17 8 51 11 76 21 193 28 263 32 320 5 77 14 89 42 61 25 -25 31 -26 31
-6 0 31 18 14 25 -23 7 -46 25 -78 25 -47 0 13 14 26 40 39 l40 19 33 -31 c47
-45 94 -44 135 2 33 38 59 39 93 5 37 -37 23 -143 -16 -122 -5 4 -7 2 -2 -2 4
-5 -3 -20 -15 -33 -21 -22 -21 -24 -3 -14 59 31 124 136 125 200 0 31 1 32 48
33 26 0 67 2 92 4 25 1 60 3 77 4 27 1 38 9 59 43 29 45 100 185 134 262 78
176 174 574 196 811 4 39 8 79 11 90 2 11 9 86 15 167 7 81 14 146 16 144 2
-2 17 -48 34 -103z m-1600 55 c-8 -8 -9 -4 -5 13 4 13 8 18 11 10 2 -7 -1 -18
-6 -23z m818 -93 c-6 -19 -15 -35 -20 -35 -7 0 -1 34 17 90 8 25 8 25 11 2 2
-12 -2 -38 -8 -57z m2011 -28 c-15 -15 -21 -5 -14 22 5 21 7 21 16 6 6 -11 5
-21 -2 -28z m164 -10 c-8 -13 -12 -27 -8 -30 3 -4 2 -7 -3 -7 -6 0 -15 5 -22
12 -9 9 -16 7 -32 -7 -17 -15 -20 -16 -20 -3 0 9 -7 18 -15 22 -9 3 -15 0 -15
-10 0 -8 4 -13 9 -10 5 3 8 -18 8 -47 -1 -28 -3 -42 -5 -30 -2 14 -8 20 -18
16 -8 -3 -14 -1 -14 5 0 5 7 12 15 16 8 3 15 11 14 18 0 10 -2 10 -6 1 -8 -20
-29 -15 -46 11 -13 19 -13 26 -4 34 22 17 52 19 65 5 18 -18 42 -16 42 3 0 14
2 15 16 3 15 -12 18 -11 28 4 6 9 14 17 19 17 4 0 1 -10 -8 -23z m-44 -115
c-6 -2 -12 -16 -12 -30 l-1 -27 -9 30 c-6 23 -7 17 -3 -22 2 -30 0 -54 -6 -58
-5 -3 -11 2 -11 12 -1 10 -3 29 -4 43 -3 28 12 63 23 56 4 -3 6 11 4 31 -3 25
-1 34 7 29 6 -4 12 0 13 11 1 10 3 -2 5 -27 3 -26 0 -46 -6 -48z m-34 26 c-3
-8 -6 -5 -6 6 -1 11 2 17 5 13 3 -3 4 -12 1 -19z m-3350 -215 c-3 -10 -5 -2
-5 17 0 19 2 27 5 18 2 -10 2 -26 0 -35z m2467 -213 c33 -120 33 -119 -5 -115
-18 3 -32 6 -33 7 -3 7 6 210 9 206 2 -1 15 -46 29 -98z m1016 -81 c0 -4 7
-12 15 -19 19 -16 19 -60 0 -86 -8 -10 -15 -27 -15 -36 0 -28 -20 -21 -20 7 0
14 -11 77 -25 141 -14 64 -25 119 -25 122 1 9 70 -120 70 -129z m-2055 52 c-4
-17 -11 -31 -16 -31 -11 0 -11 0 2 39 14 39 23 34 14 -8z m2180 -8 c-1 -10
-10 -44 -18 -75 -8 -31 -12 -59 -9 -62 3 -3 0 -6 -6 -6 -6 0 -16 9 -22 20 -8
15 -6 29 11 62 12 24 27 46 33 50 6 4 7 8 3 8 -5 0 -5 5 -2 10 9 15 14 12 10
-7z m-2198 -75 c-7 -51 -35 -176 -55 -248 -17 -64 -18 -65 -55 -68 -20 -2 -37
1 -37 6 0 6 13 41 28 78 28 66 83 209 95 247 11 31 30 19 24 -15z m1923 -58
c19 -85 39 -177 44 -205 3 -16 10 -59 16 -95 6 -36 15 -148 19 -250 l7 -185
17 39 c15 34 31 111 42 201 6 48 9 192 6 300 -3 103 3 140 22 128 6 -3 7 -1 3
5 -4 6 0 25 9 43 l16 31 20 -39 c11 -21 16 -45 13 -53 -13 -28 -16 -85 -16
-230 1 -159 4 -210 13 -210 4 0 9 -19 13 -42 11 -68 14 -78 45 -171 25 -73 29
-98 25 -155 -2 -37 -7 -101 -10 -142 -3 -41 -6 -112 -7 -156 -1 -45 -5 -80 -9
-77 -5 2 -8 -22 -9 -54 0 -32 -2 -74 -3 -93 -2 -19 -7 -82 -10 -140 -15 -223
-16 -246 -22 -290 -3 -25 -7 -73 -8 -106 -2 -34 -7 -72 -11 -84 -5 -16 -4 -20
5 -15 9 6 9 3 2 -12 -11 -20 -21 -99 -27 -201 -3 -72 -6 -79 -23 -52 -9 16 -9
19 0 18 7 -2 12 11 12 34 1 20 -2 34 -6 32 -4 -2 -9 4 -11 13 -2 10 -3 1 0
-21 3 -32 1 -37 -12 -32 -13 5 -15 1 -10 -17 5 -17 4 -19 -4 -7 -9 13 -11 13
-11 -2 0 -10 -4 -18 -9 -18 -5 0 -5 15 1 35 6 19 15 32 20 29 4 -3 8 1 8 8 0
7 -11 13 -25 13 -14 0 -25 -3 -25 -7 0 -5 4 -8 9 -8 5 0 6 -12 2 -27 -5 -20
-14 -27 -34 -28 -20 -2 -27 3 -26 14 4 40 -2 72 -11 66 -6 -4 -8 -11 -4 -16 3
-6 -2 -16 -12 -24 -18 -13 -18 -14 3 -34 12 -12 26 -21 32 -21 5 0 12 -6 14
-12 4 -10 7 -10 15 0 7 10 12 9 23 -4 12 -16 12 -17 -2 -12 -9 4 -22 1 -28 -5
-8 -8 -11 -8 -11 1 0 18 -27 14 -34 -5 -6 -15 -8 -15 -16 -3 -13 20 -13 43 0
35 20 -13 9 10 -15 31 l-26 22 23 16 c15 11 18 16 7 16 -8 0 -20 -5 -27 -12
-9 -9 -12 -9 -12 -1 0 7 5 15 10 18 6 3 7 18 4 33 -4 18 -3 23 4 14 7 -11 10
-11 15 3 4 9 3 13 -3 10 -6 -3 -10 2 -10 12 0 12 -5 9 -16 -12 -10 -19 -11
-31 -5 -33 15 -5 14 -22 -1 -18 -7 1 -10 1 -5 -1 4 -3 5 -9 2 -14 -3 -5 -1
-18 5 -30 9 -15 9 -24 1 -32 -8 -8 -11 -4 -12 14 0 13 -3 18 -6 11 -3 -7 -2
-20 1 -28 5 -13 9 -14 20 -5 11 9 16 9 22 0 4 -8 3 -9 -4 -5 -7 4 -12 2 -12
-3 0 -6 -7 -11 -15 -11 -8 0 -15 -4 -15 -10 0 -5 -3 -10 -8 -10 -4 0 -6 20 -4
44 3 35 -1 48 -19 65 -22 20 -24 20 -31 4 -6 -16 -7 -16 -8 2 -1 11 -4 14 -7
7 -2 -6 -9 -10 -14 -7 -5 4 -6 -1 -3 -9 7 -18 30 -21 39 -6 10 17 35 -16 35
-47 0 -20 -7 -31 -22 -38 -24 -11 -24 -13 -14 -55 l6 -25 -13 26 c-7 15 -18
24 -26 21 -27 -9 -5 21 30 41 l34 19 -32 -6 c-18 -3 -35 -1 -38 4 -3 6 1 7 9
4 9 -3 16 -1 16 5 0 6 -13 11 -30 11 -25 0 -30 4 -30 25 0 14 5 25 10 25 6 0
10 5 10 11 0 5 -5 7 -12 3 -6 -4 -9 -3 -6 2 3 5 9 52 13 104 3 52 8 102 10
110 2 8 7 69 10 135 4 66 8 122 10 125 1 3 6 56 10 118 6 103 9 115 34 141 39
43 43 50 86 136 39 77 40 83 40 180 0 117 -15 161 -82 241 l-43 51 0 123 c0
77 5 142 14 174 37 128 41 173 41 413 0 231 4 258 25 163z m-3820 60 c0 -5 -4
-10 -10 -10 -5 0 -10 5 -10 10 0 6 5 10 10 10 6 0 10 -4 10 -10z m157 -16 c-3
-3 -12 -4 -19 -1 -8 3 -5 6 6 6 11 1 17 -2 13 -5z m2836 -26 c45 -211 72 -373
63 -387 -4 -5 -2 -12 4 -16 18 -11 11 -38 -9 -32 -10 2 -54 -2 -97 -9 -44 -8
-89 -16 -101 -18 -27 -5 -29 8 -11 66 6 22 18 42 26 45 9 4 10 8 3 12 -8 5 -6
24 4 64 8 32 18 83 21 115 3 31 8 66 9 77 2 11 4 39 4 63 l1 42 39 0 c32 0 40
-4 44 -22z m-3316 -82 c-8 -8 -17 -12 -21 -9 -3 3 2 12 12 19 22 16 29 9 9
-10z m623 14 c0 -5 -2 -10 -4 -10 -3 0 -8 5 -11 10 -3 6 -1 10 4 10 6 0 11 -4
11 -10z m2982 -137 c11 -43 25 -105 33 -138 7 -33 20 -86 28 -117 8 -31 11
-61 8 -66 -8 -12 -68 -32 -95 -32 -26 0 -78 41 -82 63 -1 10 2 17 7 17 5 0 9
5 9 11 0 6 7 25 15 42 18 40 45 193 45 260 0 28 3 48 6 44 4 -3 15 -41 26 -84z
m-1477 -93 c10 -16 -6 -78 -21 -84 -23 -9 -74 5 -74 21 0 8 7 27 15 43 12 23
22 30 45 30 16 0 32 -4 35 -10z m-985 -203 c0 -13 -21 -51 -46 -85 -25 -34
-44 -67 -42 -74 3 -7 17 8 32 34 35 60 56 79 56 49 0 -12 -6 -21 -16 -21 -13
0 -15 -12 -14 -72 4 -154 0 -319 -9 -314 -19 12 -80 128 -96 183 -19 64 -16
130 8 176 22 42 105 147 117 147 5 0 10 -10 10 -23z m2899 -281 c-3 -62 -6
-73 -17 -64 -27 23 -34 48 -20 78 7 17 16 30 20 30 5 0 7 3 7 8 -2 12 1 22 7
22 3 0 4 -34 3 -74z m-1009 -9 c1 -23 50 -49 78 -43 15 4 32 7 39 8 6 1 14 12
18 26 5 20 10 23 33 17 15 -3 32 -11 37 -16 17 -17 11 -111 -9 -141 -18 -27
-22 -28 -100 -28 -106 0 -122 5 -141 47 -30 63 -30 95 0 126 27 26 45 28 45 4z
m-3070 -297 c0 -5 -5 -10 -11 -10 -5 0 -7 5 -4 10 3 6 8 10 11 10 2 0 4 -4 4
-10z m996 -85 c4 -33 8 -66 7 -72 0 -7 4 -13 9 -13 5 0 7 -8 3 -19 -3 -12 0
-21 9 -24 8 -3 22 -31 31 -62 9 -30 20 -53 23 -51 4 2 13 -2 20 -10 7 -8 8
-14 2 -14 -5 0 -10 -9 -10 -20 0 -25 -25 -36 -45 -20 -16 13 -20 3 -9 -24 7
-19 30 -21 37 -3 4 9 6 9 6 -1 1 -7 -7 -15 -16 -18 -10 -3 -26 -10 -36 -15
-11 -6 -22 -8 -25 -5 -3 3 0 6 7 6 8 0 11 7 7 15 -3 8 0 28 6 45 8 25 13 28
24 19 11 -9 14 -8 14 5 0 10 4 15 9 11 5 -3 13 0 17 6 4 8 3 9 -4 5 -7 -4 -12
-2 -12 5 0 10 -3 10 -12 1 -7 -7 -16 -12 -22 -12 -5 0 -1 6 10 14 16 12 17 17
6 28 -11 11 -12 10 -7 -4 5 -13 2 -18 -10 -18 -11 0 -15 5 -11 16 3 8 2 13 -3
9 -5 -3 -11 -2 -14 2 -2 5 -2 2 -1 -4 2 -7 -4 -13 -12 -13 -11 0 -14 5 -10 16
5 13 2 15 -15 11 -22 -6 -22 -2 -4 48 6 18 5 18 -12 -2 -12 -15 -18 -38 -17
-67 0 -25 -3 -43 -9 -39 -5 3 -7 16 -4 29 2 14 0 27 -4 30 -16 10 -10 84 7 91
11 4 12 8 4 13 -10 6 -10 20 0 61 7 30 16 63 20 74 5 11 11 29 15 40 9 29 21
4 31 -70z m-836 39 c0 -8 -19 -13 -24 -6 -3 5 1 9 9 9 8 0 15 -2 15 -3z m-13
-76 c-2 -13 -4 -5 -4 17 -1 22 1 32 4 23 2 -10 2 -28 0 -40z m73 22 c0 -5 -4
-10 -10 -10 -5 0 -10 5 -10 10 0 6 5 10 10 10 6 0 10 -4 10 -10z m-30 -8 c0
-5 -7 -9 -15 -9 -8 0 -15 4 -15 9 0 4 7 8 15 8 8 0 15 -4 15 -8z m84 -17 c-7
-16 -24 -21 -24 -6 0 8 7 13 27 20 1 1 0 -6 -3 -14z m-68 -42 c-11 -11 -19 6
-11 24 8 17 8 17 12 0 3 -10 2 -21 -1 -24z m43 -5 c1 -5 -6 -8 -15 -8 -8 0
-12 -5 -9 -10 4 -6 14 -9 23 -8 12 2 17 -5 19 -22 2 -42 4 -46 14 -25 8 17 8
15 4 -7 -4 -23 -2 -28 14 -28 11 0 23 -4 26 -10 3 -5 1 -10 -4 -10 -6 0 -12
-12 -12 -27 -2 -27 -2 -27 -6 -3 -2 15 -16 32 -33 42 -21 12 -28 22 -23 34 5
13 2 15 -15 9 -13 -3 -22 -2 -22 4 0 5 10 11 22 13 12 2 23 9 24 16 1 7 0 8
-2 3 -6 -10 -44 -3 -44 9 0 4 5 22 12 40 10 30 12 32 19 14 4 -10 8 -22 8 -26z
m32 15 c-12 -20 -14 -14 -5 12 4 9 9 14 11 11 3 -2 0 -13 -6 -23z m-101 7 c0
-5 -4 -10 -10 -10 -5 0 -10 5 -10 10 0 6 5 10 10 10 6 0 10 -4 10 -10z m-83
-20 c3 -10 2 -11 -4 -4 -4 7 -19 14 -33 17 -22 4 -21 5 4 4 17 -1 31 -9 33
-17z m-7 -25 c14 -19 14 -19 -2 -6 -10 7 -18 18 -18 24 0 6 1 8 3 6 1 -2 9
-13 17 -24z m3946 -112 c-1 -18 2 -33 7 -33 4 0 6 -4 3 -9 -4 -5 0 -11 6 -14
10 -3 10 -7 1 -17 -7 -8 -9 -21 -4 -34 8 -23 -10 -100 -22 -92 -4 3 -3 0 3 -6
5 -7 10 -21 9 -33 0 -20 0 -20 -9 0 -8 19 -9 18 -9 -4 -1 -24 -1 -24 -17 -5
-8 10 -12 13 -8 5 5 -10 1 -11 -16 -6 -19 6 -22 4 -17 -9 8 -20 3 -20 -17 0
-17 17 -22 39 -6 29 9 -6 41 54 45 85 6 50 18 97 28 109 8 10 8 12 1 8 -7 -4
-10 6 -8 31 2 20 4 57 4 82 l2 45 12 -50 c7 -27 12 -65 12 -82z m-142 65 c21
-130 34 -265 28 -295 -4 -22 -22 -33 -22 -13 0 6 -9 10 -19 10 -11 0 -22 6
-25 13 -3 6 -2 -1 1 -18 6 -27 5 -29 -10 -17 -9 8 -21 11 -27 7 -16 -10 -39
13 -33 33 3 13 -2 18 -16 18 -11 0 -18 -3 -15 -7 2 -4 -4 -10 -13 -13 -10 -3
-6 -4 8 -2 21 2 26 -1 24 -18 0 -12 3 -27 8 -33 6 -8 6 -13 -1 -13 -12 0 -24
29 -16 41 3 5 -5 5 -19 0 -14 -6 -28 -7 -31 -4 -3 4 -6 1 -6 -5 0 -7 -9 -12
-20 -12 -12 0 -20 -7 -21 -17 0 -15 -2 -15 -9 2 -7 17 -9 17 -9 3 -1 -11 -6
-15 -16 -12 -9 4 -15 0 -15 -10 0 -9 -7 -16 -17 -16 -17 0 -12 8 35 59 8 8 18
25 23 38 4 12 15 23 24 23 8 0 15 5 15 11 0 5 -6 7 -12 3 -10 -6 -10 -5 0 8
11 14 67 14 58 -1 -6 -10 74 -5 83 5 9 10 33 118 36 162 1 15 3 49 3 75 2 57
17 55 26 -5z m-3577 -20 c-3 -8 -6 -5 -6 6 -1 11 2 17 5 13 3 -3 4 -12 1 -19z
m-317 -8 c0 -5 -4 -10 -10 -10 -5 0 -10 5 -10 10 0 6 5 10 10 10 6 0 10 -4 10
-10z m445 0 c-3 -5 -12 -10 -18 -10 -7 0 -6 4 3 10 19 12 23 12 15 0z m-299
-12 c4 -6 3 -8 -4 -4 -15 9 -23 -7 -12 -24 5 -9 4 -20 -2 -28 -6 -7 -7 -12 -2
-11 21 4 74 -26 74 -43 0 -10 -5 -18 -11 -18 -5 0 -7 -4 -4 -10 3 -5 1 -10 -4
-10 -6 0 -11 6 -11 14 0 8 -6 17 -12 20 -7 3 -3 3 10 0 12 -3 22 -1 22 4 0 14
-27 23 -47 15 -11 -4 -14 -3 -9 5 6 11 -19 18 -46 13 -5 0 -8 4 -8 9 0 6 5 10
11 10 5 0 7 5 4 10 -4 6 -3 10 2 9 20 -3 23 2 12 22 -7 13 -7 19 -1 15 6 -3
13 -2 17 4 8 13 12 13 21 -2z m261 6 c-3 -3 -12 -4 -19 -1 -8 3 -5 6 6 6 11 1
17 -2 13 -5z m-16 -14 c10 0 19 -4 19 -8 0 -14 -44 -9 -60 7 -13 13 -13 14 3
8 10 -4 27 -7 38 -7z m76 -16 c-3 -3 -12 -4 -19 -1 -8 3 -5 6 6 6 11 1 17 -2
13 -5z m-223 -57 c7 -6 6 -7 -4 -4 -8 2 -16 12 -17 23 -2 13 -1 15 4 4 3 -8
11 -19 17 -23z m767 23 c5 0 9 -5 9 -11 0 -5 -4 -8 -9 -5 -5 4 -12 0 -14 -6
-4 -8 -6 -7 -6 4 -1 9 -4 18 -8 21 -5 2 -2 2 5 0 8 -1 18 -3 23 -3z m-981 -26
c0 -8 -6 -14 -14 -14 -12 0 -14 10 -7 38 3 10 21 -11 21 -24z m92 -27 c15 -12
14 -14 -13 -24 -16 -6 -29 -7 -29 -2 0 5 7 9 16 9 14 0 14 3 4 15 -15 18 -1
19 22 2z m119 -8 c-2 -8 -6 -22 -8 -31 -4 -14 1 -18 23 -19 29 -1 29 -1 4 -9
-18 -5 -29 -2 -38 9 -12 15 -14 14 -26 -2 -11 -15 -15 -15 -19 -3 -4 10 3 18
21 25 15 5 22 10 15 10 -6 1 -9 10 -6 21 3 13 12 20 22 17 9 -2 14 -10 12 -18z
m-182 -14 c3 -19 2 -19 -15 -3 -12 10 -30 15 -49 12 -28 -3 -29 -3 -5 5 38 14
64 8 69 -14z m878 19 c-3 -3 -12 -4 -19 -1 -8 3 -5 6 6 6 11 1 17 -2 13 -5z
m-427 -13 c-22 -6 -23 -8 -7 -14 11 -4 22 -5 26 -3 4 3 6 -9 5 -27 -1 -18 -3
-41 -3 -51 -1 -20 -1 -20 -16 0 -16 21 -20 59 -6 49 5 -3 12 -1 15 4 7 11 -22
23 -36 14 -7 -3 -8 -1 -4 5 4 7 1 12 -6 12 -9 0 -9 3 2 10 8 5 24 9 35 9 16
-1 15 -2 -5 -8z m410 -32 c0 -5 3 -8 8 -7 4 1 19 -2 34 -6 32 -9 28 -26 -5
-26 -20 -1 -20 -2 -4 -11 19 -11 23 -29 6 -29 -5 0 -8 4 -5 9 3 5 -1 11 -9 15
-8 3 -17 1 -20 -4 -10 -15 -25 -12 -25 6 0 9 -5 12 -12 8 -7 -4 -8 -3 -4 4 4
7 1 12 -8 12 -10 0 -13 -7 -11 -23 4 -17 0 -23 -16 -24 -12 -1 -18 1 -15 4 3
4 -1 15 -11 25 -15 17 -15 18 1 18 9 0 14 5 11 10 -4 6 -10 8 -14 6 -4 -3 -8
1 -8 9 0 8 6 15 14 15 7 0 12 -4 11 -9 -2 -5 0 -9 5 -10 4 -1 7 2 6 5 -2 13
23 21 47 16 13 -2 24 -8 24 -13z m80 11 c0 -5 -5 -10 -11 -10 -5 0 -7 5 -4 10
3 6 8 10 11 10 2 0 4 -4 4 -10z m-869 -31 c23 -23 4 -37 -20 -15 -10 9 -23 16
-30 16 -7 0 -10 4 -7 8 9 15 38 10 57 -9z m-91 6 c0 -2 -10 -9 -21 -16 -13 -6
-19 -7 -15 -1 3 6 0 13 -6 15 -7 3 -1 6 15 6 15 1 27 -1 27 -4z m295 -5 c3 -6
-1 -7 -9 -4 -18 7 -21 14 -7 14 6 0 13 -4 16 -10z m222 -12 c-3 -8 -6 -5 -6 6
-1 11 2 17 5 13 3 -3 4 -12 1 -19z m-589 -2 c-7 -8 -15 -12 -17 -11 -5 6 10
25 20 25 5 0 4 -6 -3 -14z m287 -6 c-3 -5 3 -10 13 -10 14 0 20 -7 20 -22 -1
-13 2 -39 5 -58 l7 -35 -11 38 c-6 20 -16 37 -21 37 -6 0 -5 6 2 15 10 12 10
15 -3 15 -8 0 -17 -6 -20 -12 -4 -10 -7 -10 -18 0 -12 11 -12 13 1 10 8 -2 15
3 16 10 3 19 4 22 10 22 3 0 2 -4 -1 -10z m536 -17 c-12 -20 -14 -14 -5 12 4
9 9 14 11 11 3 -2 0 -13 -6 -23z m-191 7 c0 -5 -2 -10 -4 -10 -3 0 -8 5 -11
10 -3 6 -1 10 4 10 6 0 11 -4 11 -10z m293 -24 c3 -8 0 -17 -7 -19 -10 -4 -12
1 -9 14 6 23 9 24 16 5z m-743 -36 c0 -13 -1 -13 -10 0 -5 8 -10 22 -10 30 0
13 1 13 10 0 5 -8 10 -22 10 -30z m790 20 c0 -11 -4 -20 -10 -20 -5 0 -10 9
-10 20 0 11 5 20 10 20 6 0 10 -9 10 -20z m-137 3 c-7 -2 -19 -2 -25 0 -7 3
-2 5 12 5 14 0 19 -2 13 -5z m214 -15 c-3 -8 -6 -5 -6 6 -1 11 2 17 5 13 3 -3
4 -12 1 -19z m20 0 c-3 -8 -6 -5 -6 6 -1 11 2 17 5 13 3 -3 4 -12 1 -19z m566
-8 c-7 -28 -13 -25 -13 6 0 14 4 23 9 20 5 -3 7 -15 4 -26z m-1210 0 c4 -16 2
-18 -13 -10 -28 15 -53 12 -47 -5 4 -8 3 -17 -2 -19 -11 -7 -10 27 2 42 15 19
54 15 60 -8z m477 -12 c0 -5 -7 -3 -15 6 -8 8 -15 18 -15 22 0 3 7 1 15 -6 8
-7 15 -17 15 -22z m-273 0 c-3 -8 -6 -5 -6 6 -1 11 2 17 5 13 3 -3 4 -12 1
-19z m210 16 c-3 -3 -12 -4 -19 -1 -8 3 -5 6 6 6 11 1 17 -2 13 -5z m173 -9
c0 -8 -7 -15 -15 -15 -13 0 -14 3 -3 15 16 18 18 18 18 0z m470 -86 c0 -91 -2
-99 -15 -85 -12 11 -15 28 -11 63 6 61 18 123 22 123 2 0 4 -45 4 -101z m185
61 c-3 -4 2 -10 10 -14 8 -3 15 -12 15 -20 0 -8 5 -16 12 -18 16 -6 -19 -137
-38 -145 -8 -3 -14 -12 -14 -20 0 -9 -8 -22 -17 -30 -10 -8 -12 -12 -6 -8 23
11 2 -25 -21 -37 -18 -9 -19 -9 -10 3 7 8 12 62 13 129 2 130 7 160 27 160 9
0 11 6 7 18 -6 15 -5 15 10 3 9 -7 15 -17 12 -21z m-535 0 c0 -5 -4 -10 -10
-10 -5 0 -10 5 -10 10 0 6 5 10 10 10 6 0 10 -4 10 -10z m2118 -14 c3 -15 0
-16 -16 -7 -11 6 -23 7 -28 3 -5 -4 -2 1 5 11 16 21 35 18 39 -7z m223 -10 c5
3 9 -2 9 -11 0 -9 -5 -13 -11 -9 -8 4 -8 0 0 -15 9 -17 8 -24 -8 -40 -13 -13
-16 -21 -8 -25 7 -2 -5 -5 -25 -5 -33 -1 -67 18 -36 20 10 0 11 2 0 6 -10 4
-10 8 0 21 11 13 11 15 -2 7 -12 -6 -13 -6 -2 6 11 11 14 12 21 0 6 -9 10 -6
15 13 4 15 11 24 16 21 6 -3 10 2 11 12 0 11 3 13 6 5 2 -6 9 -10 14 -6z
m-3441 -6 c0 -5 -7 -10 -16 -10 -8 0 -12 5 -9 10 3 6 10 10 16 10 5 0 9 -4 9
-10z m3116 -22 c-1 -16 5 -24 21 -26 13 -2 20 -8 17 -17 -3 -7 -1 -16 5 -19 5
-3 12 7 16 22 5 25 35 42 35 20 0 -4 -3 -8 -7 -8 -5 0 -8 -14 -9 -30 -1 -25 3
-30 22 -30 12 0 29 7 38 15 19 20 43 10 49 -20 2 -14 0 -22 -4 -19 -5 3 -9 1
-9 -5 0 -6 -8 -8 -17 -5 -15 5 -15 3 2 -13 20 -18 24 -44 10 -76 -4 -9 -5 -28
-3 -41 3 -14 0 -23 -9 -23 -7 0 -13 5 -13 11 0 6 -9 -2 -20 -19 -11 -16 -20
-37 -19 -45 0 -8 5 -3 11 13 5 15 14 27 19 27 12 0 11 -3 -3 -37 -6 -15 -12
-32 -12 -37 -1 -5 -8 -11 -16 -13 -10 -3 -11 -2 -3 4 8 6 8 13 -3 27 -8 11
-14 14 -14 8 0 -7 -15 -12 -37 -11 -21 0 -32 3 -25 6 17 7 15 30 -3 37 -10 3
-15 -1 -15 -12 0 -15 -2 -15 -10 -2 -7 10 -6 18 3 25 7 6 13 24 13 40 1 17 -1
24 -3 18 -3 -7 -9 -13 -13 -13 -9 0 -6 44 5 80 3 11 2 20 -4 20 -5 0 -12 -8
-14 -17 -3 -10 -3 2 1 27 5 40 4 44 -11 32 -13 -11 -15 -10 -10 10 4 18 3 20
-6 8 -9 -13 -11 -11 -11 7 0 12 -4 24 -9 27 -5 4 -7 -4 -4 -16 6 -22 6 -22
-15 2 -18 21 -23 23 -32 10 -6 -9 -10 -10 -10 -3 0 8 108 79 126 83 0 0 0 -10
0 -22z m89 12 c3 -5 1 -10 -4 -10 -6 0 -11 5 -11 10 0 6 2 10 4 10 3 0 8 -4
11 -10z m-1009 -70 c12 0 48 -16 80 -35 33 -19 106 -58 164 -87 84 -42 115
-52 155 -53 56 0 64 -6 59 -44 -13 -91 -24 -202 -24 -238 0 -30 -4 -43 -14
-43 -47 0 -428 176 -529 245 -108 73 -106 69 -107 170 -1 50 -1 104 -1 121 l1
31 98 -33 c53 -18 107 -34 118 -34z m1384 45 c-7 -9 -15 -13 -17 -11 -7 7 7
26 19 26 6 0 6 -6 -2 -15z m-3447 -2 c-18 -2 -33 -8 -33 -14 0 -5 -7 -9 -15
-9 -13 0 -14 3 -3 15 7 8 28 14 48 13 l35 -1 -32 -4z m192 -24 c11 -16 1 -19
-13 -3 -7 8 -8 14 -3 14 5 0 13 -5 16 -11z m155 1 c0 -5 -4 -10 -10 -10 -5 0
-10 5 -10 10 0 6 5 10 10 10 6 0 10 -4 10 -10z m-427 -27 c3 -5 -6 -9 -20 -10
-19 -1 -22 1 -12 8 17 11 26 11 32 2z m3344 -29 c-3 -3 -12 -4 -19 -1 -8 3 -5
6 6 6 11 1 17 -2 13 -5z m-2252 -34 c3 -6 -1 -7 -9 -4 -18 7 -21 14 -7 14 6 0
13 -4 16 -10z m-335 -24 c0 -3 -4 -8 -10 -11 -5 -3 -10 -1 -10 4 0 6 5 11 10
11 6 0 10 -2 10 -4z m110 -27 c0 -28 -15 -23 -18 7 -1 14 2 23 8 19 6 -3 10
-15 10 -26z m180 25 c0 -8 -19 -13 -24 -6 -3 5 1 9 9 9 8 0 15 -2 15 -3z m164
-20 c22 -8 20 -19 -2 -21 -10 -1 -19 5 -19 13 0 16 0 16 21 8z m147 -27 c-6
-8 -7 -18 -3 -22 4 -5 1 -5 -6 -1 -10 6 -10 11 -1 22 6 8 14 14 16 14 3 0 0
-6 -6 -13z m-574 -19 c-3 -8 -6 -5 -6 6 -1 11 2 17 5 13 3 -3 4 -12 1 -19z
m-128 -1 c8 -10 7 -14 -2 -14 -8 0 -14 6 -14 14 0 7 1 13 2 13 2 0 8 -6 14
-13z m201 9 c0 -2 -7 -7 -16 -10 -8 -3 -12 -2 -9 4 6 10 25 14 25 6z m844 -18
c-11 -13 -20 -32 -20 -43 1 -11 -3 -23 -9 -27 -7 -5 -7 -11 0 -15 6 -5 11 -20
13 -34 3 -23 -6 -33 -59 -68 -52 -35 -64 -39 -78 -29 -14 11 -14 11 -3 -3 11
-15 6 -21 -36 -52 -73 -52 -93 -61 -135 -58 -46 2 -77 -26 -77 -70 0 -15 -4
-31 -10 -34 -5 -3 -10 -14 -10 -24 0 -13 -17 -26 -52 -41 -29 -12 -110 -51
-180 -86 -77 -38 -135 -61 -145 -58 -15 5 -16 4 -3 -5 14 -10 8 -13 -16 -10
-4 0 -10 -4 -13 -9 -11 -16 -173 -92 -198 -92 -12 0 -23 -4 -23 -9 0 -5 -16
-8 -36 -7 -20 1 -38 -2 -41 -6 -6 -10 -23 0 -23 13 0 6 5 7 10 4 9 -6 14 8 11
28 0 4 3 7 7 7 15 0 53 41 47 51 -4 5 -1 9 4 9 6 0 11 7 11 16 0 8 15 22 33
30 17 8 51 25 74 38 23 13 45 21 49 17 3 -3 3 4 0 17 -6 16 -3 24 11 29 35 13
95 68 108 100 8 18 19 33 25 33 6 0 9 4 6 9 -3 5 17 33 44 62 50 53 62 78 38
80 -10 0 -10 2 0 6 6 2 12 9 12 14 0 6 -4 7 -10 4 -14 -9 -12 2 5 29 20 31 27
67 15 81 -12 14 -25 95 -16 95 4 0 17 -5 28 -11 12 -7 55 -10 97 -9 42 1 114
4 161 5 47 2 87 4 90 5 18 7 67 -4 78 -18 7 -9 12 -11 12 -4 0 7 7 12 16 12
14 0 14 -3 4 -15 -7 -8 -9 -15 -5 -15 4 0 0 -11 -9 -25 -24 -37 -21 -38 34
-10 54 27 89 32 108 13 9 -9 12 -9 12 0 0 7 -7 15 -15 18 -18 7 -20 24 -2 24
7 0 26 14 42 30 33 35 48 41 19 8z m-1081 -13 c-3 -9 -8 -14 -10 -11 -3 3 -2
9 2 15 9 16 15 13 8 -4z m-23 -16 c0 -5 -4 -9 -10 -9 -5 0 -10 7 -10 16 0 8 5
12 10 9 6 -3 10 -10 10 -16z m-617 -16 c-7 -2 -19 -2 -25 0 -7 3 -2 5 12 5 14
0 19 -2 13 -5z m627 -33 c-18 -11 -22 -7 -14 14 5 13 10 14 18 6 8 -8 7 -13
-4 -20z m-640 0 c0 -5 -2 -10 -4 -10 -3 0 -8 5 -11 10 -3 6 -1 10 4 10 6 0 11
-4 11 -10z m584 -32 c6 -4 1 -6 -10 -6 -16 2 -20 7 -16 22 4 15 7 17 10 6 3
-8 10 -18 16 -22z m-389 2 c3 -5 -1 -10 -9 -10 -9 0 -16 5 -16 10 0 6 4 10 9
10 6 0 13 -4 16 -10z m75 -45 c0 -14 -4 -25 -9 -25 -4 0 -6 11 -3 25 2 14 6
25 8 25 2 0 4 -11 4 -25z m330 19 c0 -8 -19 -13 -24 -6 -3 5 1 9 9 9 8 0 15
-2 15 -3z m51 -21 c13 -16 12 -17 -3 -4 -10 7 -18 15 -18 17 0 8 8 3 21 -13z
m-264 -23 c-2 -11 -6 -22 -9 -26 -4 -3 -5 2 -3 13 2 10 4 21 4 26 1 4 3 7 6 7
3 0 4 -9 2 -20z m647 -24 c4 -22 2 -25 -8 -17 -7 6 -16 8 -19 5 -4 -4 -1 5 6
19 14 30 14 30 21 -7z m-864 4 c0 -5 -2 -10 -4 -10 -3 0 -8 5 -11 10 -3 6 -1
10 4 10 6 0 11 -4 11 -10z m4040 -140 c0 -5 -4 -10 -10 -10 -5 0 -10 5 -10 10
0 6 5 10 10 10 6 0 10 -4 10 -10z m-830 -44 c0 -2 -6 -9 -13 -15 -10 -8 -14
-7 -14 4 0 8 6 15 14 15 7 0 13 -2 13 -4z m633 -28 c-3 -18 -10 -41 -14 -50
-5 -9 -6 -24 -3 -32 4 -9 1 -16 -6 -16 -8 0 -10 9 -6 28 6 24 11 51 15 90 0 6
5 12 11 12 5 0 7 -14 3 -32z m321 16 c9 -24 7 -28 -7 -15 -8 6 -17 8 -20 4 -4
-3 -7 -2 -7 4 0 25 25 30 34 7z m-1059 -4 c3 -5 1 -10 -4 -10 -6 0 -11 5 -11
10 0 6 2 10 4 10 3 0 8 -4 11 -10z m836 -30 c10 0 19 -4 19 -8 0 -5 -13 -7
-30 -4 -34 5 -33 4 -23 29 7 17 8 17 11 1 2 -10 12 -18 23 -18z m49 18 c0 -4
-7 -8 -15 -8 -8 0 -15 4 -15 8 0 5 7 9 15 9 8 0 15 -4 15 -9z m-885 -18 c3 -5
1 -10 -4 -10 -6 0 -11 5 -11 10 0 6 2 10 4 10 3 0 8 -4 11 -10z m102 -6 c-3
-3 -12 -4 -19 -1 -8 3 -5 6 6 6 11 1 17 -2 13 -5z m-10 -36 c-3 -8 -6 -5 -6 6
-1 11 2 17 5 13 3 -3 4 -12 1 -19z m663 2 c0 -5 -4 -10 -10 -10 -5 0 -10 5
-10 10 0 6 5 10 10 10 6 0 10 -4 10 -10z m100 6 c0 -3 -4 -8 -10 -11 -5 -3
-10 -1 -10 4 0 6 5 11 10 11 6 0 10 -2 10 -4z m28 -21 c-3 -3 -9 2 -12 12 -6
14 -5 15 5 6 7 -7 10 -15 7 -18z m-108 -9 c0 -3 -4 -8 -10 -11 -5 -3 -10 -1
-10 4 0 6 5 11 10 11 6 0 10 -2 10 -4z m-3655 -26 c3 -5 1 -10 -4 -10 -6 0
-11 5 -11 10 0 6 2 10 4 10 3 0 8 -4 11 -10z m2989 -5 c3 -9 0 -15 -9 -15 -9
0 -12 6 -9 15 4 8 7 15 9 15 2 0 5 -7 9 -15z m883 -12 c1 -24 0 -25 -6 -8 -7
17 -6 35 2 35 2 0 3 -12 4 -27z m-992 -1 c-3 -3 -11 0 -18 7 -9 10 -8 11 6 5
10 -3 15 -9 12 -12z m789 -1 c3 -5 -1 -11 -9 -14 -9 -4 -12 -1 -8 9 6 16 10
17 17 5z m-14 -45 c0 -2 -7 -7 -16 -10 -8 -3 -12 -2 -9 4 6 10 25 14 25 6z
m-680 -37 c0 -5 -4 -9 -8 -9 -5 0 -9 7 -9 15 0 8 4 12 9 9 4 -3 8 -9 8 -15z
m-2750 -192 c0 -2 -9 -12 -19 -21 -13 -11 -21 -14 -26 -7 -3 6 4 15 17 20 28
12 28 12 28 8z m44 -42 c-8 -19 -10 -19 -18 0 -3 9 0 15 9 15 9 0 12 -6 9 -15z
m50 -11 c3 -8 2 -12 -4 -9 -6 3 -10 10 -10 16 0 14 7 11 14 -7z"/>
<path d="M3102 2418 c-14 -14 -16 -28 -3 -28 5 0 11 9 14 20 6 23 5 24 -11 8z"/>
<path d="M1861 2005 c25 -42 43 -65 54 -65 6 0 -12 26 -56 80 -18 21 -17 19 2
-15z"/>
<path d="M1960 1928 c0 -5 35 -7 78 -7 78 2 69 6 -26 11 -28 2 -52 0 -52 -4z"/>
<path d="M3496 1843 c-11 -11 -6 -23 9 -23 8 0 15 4 15 9 0 13 -16 22 -24 14z"/>
<path d="M2860 1786 c0 -14 5 -26 10 -26 6 0 10 9 10 19 0 11 -4 23 -10 26 -6
4 -10 -5 -10 -19z"/>
<path d="M2610 1313 c-14 -3 -29 -9 -35 -15 -7 -7 -2 -9 15 -4 14 3 35 6 48 6
13 0 20 4 17 10 -3 6 -9 9 -13 9 -4 -1 -18 -4 -32 -6z"/>
<path d="M2735 1300 c28 -12 37 -12 30 0 -3 6 -16 10 -28 9 -21 0 -21 -1 -2
-9z"/>
<path d="M4196 3481 c-3 -5 1 -14 9 -21 13 -10 15 -9 15 9 0 21 -14 28 -24 12z"/>
<path d="M4125 721 c-3 -5 -2 -12 3 -15 5 -3 9 1 9 9 0 17 -3 19 -12 6z"/>
<path d="M4393 640 c0 -23 3 -28 9 -16 5 9 5 23 0 32 -6 12 -9 7 -9 -16z"/>
<path d="M4330 580 c-9 -16 -8 -20 7 -21 16 0 16 -1 -2 -9 -19 -8 -19 -9 3 -9
13 -1 22 5 22 14 0 8 -4 15 -10 15 -5 0 -7 7 -4 15 9 22 -4 18 -16 -5z"/>
<path d="M4151 544 c0 -11 3 -14 6 -6 3 7 2 16 -1 19 -3 4 -6 -2 -5 -13z"/>
<path d="M3400 2470 c8 -5 22 -10 30 -10 13 0 13 1 0 10 -8 5 -22 10 -30 10
-13 0 -13 -1 0 -10z"/>
<path d="M1040 1590 c0 -5 5 -10 10 -10 6 0 10 5 10 10 0 6 -4 10 -10 10 -5 0
-10 -4 -10 -10z"/>
<path d="M1045 1560 c3 -5 8 -10 11 -10 2 0 4 5 4 10 0 6 -5 10 -11 10 -5 0
-7 -4 -4 -10z"/>
<path d="M1047 1487 c-3 -8 1 -14 8 -14 7 0 11 6 8 14 -3 7 -6 13 -8 13 -2 0
-5 -6 -8 -13z"/>
<path d="M4050 1246 c0 -2 8 -10 18 -17 15 -13 16 -12 3 4 -13 16 -21 21 -21
13z"/>
<path d="M927 1294 c-10 -13 -17 -26 -17 -29 0 -8 15 -6 15 3 0 4 4 13 9 20 6
11 13 9 31 -8 22 -21 25 -21 47 -6 l22 16 -25 0 c-14 0 -30 5 -37 12 -7 7 -12
8 -12 3 0 -6 -4 -5 -8 1 -5 8 -13 4 -25 -12z"/>
<path d="M3165 1090 c10 -11 20 -20 23 -20 3 0 -3 9 -13 20 -10 11 -20 20 -23
20 -3 0 3 -9 13 -20z"/>
<path d="M3251 1064 c0 -11 3 -14 6 -6 3 7 2 16 -1 19 -3 4 -6 -2 -5 -13z"/>
<path d="M3196 1061 c-3 -5 1 -14 10 -21 12 -11 12 -15 2 -21 -10 -7 -9 -9 5
-9 21 0 23 26 1 34 -8 3 -12 10 -9 16 3 5 4 10 1 10 -3 0 -7 -4 -10 -9z"/>
<path d="M3345 1020 c-3 -5 -1 -10 4 -10 6 0 11 5 11 10 0 6 -2 10 -4 10 -3 0
-8 -4 -11 -10z"/>
<path d="M3311 984 c0 -11 3 -14 6 -6 3 7 2 16 -1 19 -3 4 -6 -2 -5 -13z"/>
<path d="M3235 940 c3 -5 8 -10 11 -10 2 0 4 5 4 10 0 6 -5 10 -11 10 -5 0 -7
-4 -4 -10z"/>
<path d="M3190 919 c0 -5 5 -7 10 -4 6 3 10 8 10 11 0 2 -4 4 -10 4 -5 0 -10
-5 -10 -11z"/>
<path d="M3300 926 c0 -2 7 -7 16 -10 8 -3 12 -2 9 4 -6 10 -25 14 -25 6z"/>
<path d="M3212 840 c-8 -13 -8 -20 -2 -20 6 0 13 7 17 15 9 24 -1 27 -15 5z"/>
<path d="M3231 794 c0 -11 3 -14 6 -6 3 7 2 16 -1 19 -3 4 -6 -2 -5 -13z"/>
<path d="M1785 849 c-4 -6 -5 -12 -2 -15 2 -3 7 2 10 11 7 17 1 20 -8 4z"/>
<path d="M1338 483 c-16 -2 -28 -8 -28 -12 0 -11 49 -1 56 10 3 5 4 8 2 8 -2
-1 -15 -4 -30 -6z"/>
<path d="M1210 449 c-30 -11 -68 -25 -85 -31 -16 -5 -39 -13 -50 -18 -11 -5
-41 -16 -67 -26 -26 -9 -45 -20 -42 -25 5 -9 31 -2 52 14 6 5 12 7 12 4 0 -4
37 7 83 24 45 17 94 34 108 39 14 4 35 13 47 19 15 8 22 8 25 -2 3 -7 6 -5 6
6 1 22 -20 21 -89 -4z"/>
<path d="M2350 4431 c0 -5 91 -12 198 -15 17 -1 32 -5 32 -11 0 -5 5 -3 10 5
7 11 33 16 110 17 107 3 163 -4 154 -18 -3 -5 -1 -9 5 -9 5 0 11 5 13 12 3 9
12 9 38 0 18 -7 46 -12 62 -12 19 0 27 -4 22 -11 -4 -8 0 -9 15 -4 26 8 27 -3
4 -22 -16 -13 -15 -13 7 0 23 13 32 12 90 -8 75 -25 146 -57 113 -51 -13 2
-25 0 -28 -4 -3 -5 11 -7 30 -5 19 2 35 -1 35 -7 0 -5 4 -6 10 -3 13 8 66 -21
74 -41 5 -13 9 -14 21 -4 14 11 19 7 16 -13 -1 -4 6 -10 14 -13 8 -3 12 -11 8
-17 -3 -6 -1 -7 6 -3 6 4 9 12 6 17 -4 5 -4 9 -1 9 12 0 56 -24 56 -30 0 -4
25 -20 55 -35 30 -16 53 -31 51 -33 -7 -7 35 -43 43 -37 5 3 20 -6 32 -20 13
-13 29 -25 36 -25 7 0 17 -9 23 -20 6 -11 15 -18 19 -15 5 3 11 -2 14 -9 3 -8
1 -16 -6 -19 -6 -2 -3 -6 7 -10 9 -4 15 -3 11 2 -3 5 1 11 7 14 7 2 11 6 8 9
-99 85 -191 152 -295 216 -63 38 -275 135 -363 166 -172 60 -219 66 -506 64
-141 0 -256 -4 -256 -7z"/>
<path d="M2300 4395 c0 -8 2 -15 4 -15 2 0 6 7 10 15 3 8 1 15 -4 15 -6 0 -10
-7 -10 -15z"/>
<path d="M2555 4389 c-9 -14 -2 -20 14 -10 8 6 9 11 3 15 -6 3 -14 1 -17 -5z"/>
<path d="M2250 4375 c0 -6 9 -18 20 -28 19 -16 20 -16 20 4 0 12 -4 17 -11 13
-6 -3 -15 0 -20 7 -5 8 -9 9 -9 4z"/>
<path d="M2742 4360 c0 -14 2 -19 5 -12 2 6 2 18 0 25 -3 6 -5 1 -5 -13z"/>
<path d="M2771 4364 c0 -11 3 -14 6 -6 3 7 2 16 -1 19 -3 4 -6 -2 -5 -13z"/>
<path d="M2928 4373 c6 -2 18 -2 25 0 6 3 1 5 -13 5 -14 0 -19 -2 -12 -5z"/>
<path d="M2470 4354 c0 -8 5 -12 10 -9 6 4 8 11 5 16 -9 14 -15 11 -15 -7z"/>
<path d="M2805 4360 c-3 -6 1 -7 9 -4 18 7 21 14 7 14 -6 0 -13 -4 -16 -10z"/>
<path d="M2975 4360 c3 -5 8 -10 11 -10 2 0 4 5 4 10 0 6 -5 10 -11 10 -5 0
-7 -4 -4 -10z"/>
<path d="M2870 4346 c0 -9 5 -16 10 -16 6 0 10 4 10 9 0 6 -4 13 -10 16 -5 3
-10 -1 -10 -9z"/>
<path d="M2063 4335 c-3 -9 -3 -19 1 -22 3 -4 6 -1 6 6 0 7 9 9 28 5 26 -6 26
-6 7 9 -25 21 -34 21 -42 2z"/>
<path d="M1990 4331 c0 -7 -4 -9 -10 -6 -6 4 -7 -1 -3 -11 6 -15 7 -15 15 1 6
9 7 19 4 22 -3 4 -6 1 -6 -6z"/>
<path d="M3071 4314 c0 -11 3 -14 6 -6 3 7 2 16 -1 19 -3 4 -6 -2 -5 -13z"/>
<path d="M1865 4311 c-7 -12 12 -24 25 -16 11 7 4 25 -10 25 -5 0 -11 -4 -15
-9z"/>
<path d="M2965 4310 c-3 -5 -1 -10 4 -10 6 0 11 5 11 10 0 6 -2 10 -4 10 -3 0
-8 -4 -11 -10z"/>
<path d="M3211 4264 c0 -11 3 -14 6 -6 3 7 2 16 -1 19 -3 4 -6 -2 -5 -13z"/>
<path d="M3276 4262 c-3 -5 1 -9 9 -9 8 0 12 4 9 9 -3 4 -7 8 -9 8 -2 0 -6 -4
-9 -8z"/>
<path d="M3314 4236 c1 -8 5 -18 8 -22 4 -3 5 1 4 10 -1 8 -5 18 -8 22 -4 3
-5 -1 -4 -10z"/>
<path d="M3290 4210 c6 -11 13 -20 16 -20 2 0 0 9 -6 20 -6 11 -13 20 -16 20
-2 0 0 -9 6 -20z"/>
<path d="M1646 4212 c-3 -5 1 -9 9 -9 8 0 12 4 9 9 -3 4 -7 8 -9 8 -2 0 -6 -4
-9 -8z"/>
<path d="M1600 4180 c-8 -5 -10 -10 -5 -10 6 0 17 5 25 10 8 5 11 10 5 10 -5
0 -17 -5 -25 -10z"/>
<path d="M3390 4155 c14 -8 30 -14 35 -14 6 0 -1 6 -15 14 -14 8 -29 14 -35
14 -5 0 1 -6 15 -14z"/>
<path d="M3460 4160 c-9 -6 -10 -10 -3 -10 6 0 15 5 18 10 8 12 4 12 -15 0z"/>
<path d="M1516 4151 c-4 -5 3 -7 14 -4 23 6 26 13 6 13 -8 0 -17 -4 -20 -9z"/>
<path d="M1455 4090 c-3 -5 -1 -10 4 -10 6 0 11 5 11 10 0 6 -2 10 -4 10 -3 0
-8 -4 -11 -10z"/>
<path d="M3525 4080 c-3 -6 1 -7 9 -4 18 7 21 14 7 14 -6 0 -13 -4 -16 -10z"/>
<path d="M3641 4034 c0 -11 3 -14 6 -6 3 7 2 16 -1 19 -3 4 -6 -2 -5 -13z"/>
<path d="M3575 4010 c3 -5 8 -10 11 -10 2 0 4 5 4 10 0 6 -5 10 -11 10 -5 0
-7 -4 -4 -10z"/>
<path d="M3817 3883 c-3 -5 -1 -17 4 -28 6 -17 7 -16 6 8 -1 28 -3 32 -10 20z"/>
<path d="M3844 3823 c4 -25 36 -30 35 -6 0 10 -3 13 -6 6 -2 -7 -9 -13 -14
-13 -6 0 -8 4 -4 9 3 5 1 12 -4 15 -5 4 -8 -2 -7 -11z"/>
<path d="M3865 3770 c-3 -5 -1 -10 4 -10 6 0 11 5 11 10 0 6 -2 10 -4 10 -3 0
-8 -4 -11 -10z"/>
<path d="M3900 3750 c0 -5 5 -10 11 -10 5 0 7 5 4 10 -3 6 -8 10 -11 10 -2 0
-4 -4 -4 -10z"/>
<path d="M4535 3670 c-15 -7 -10 -9 23 -9 23 -1 42 4 42 9 0 12 -37 12 -65 0z"/>
<path d="M4001 3624 c0 -11 3 -14 6 -6 3 7 2 16 -1 19 -3 4 -6 -2 -5 -13z"/>
<path d="M4046 3548 c3 -5 10 -6 15 -3 13 9 11 12 -6 12 -8 0 -12 -4 -9 -9z"/>
<path d="M4516 3521 c-24 -4 -43 -14 -50 -26 -6 -11 -13 -22 -16 -25 -15 -13
-61 -133 -57 -148 3 -12 6 -10 11 11 5 15 12 27 16 27 5 0 11 13 15 29 3 17
19 47 35 69 24 34 35 40 79 46 28 4 51 11 51 16 0 11 -21 11 -84 1z"/>
<path d="M4111 3414 c0 -11 3 -14 6 -6 3 7 2 16 -1 19 -3 4 -6 -2 -5 -13z"/>
<path d="M4166 3397 c3 -10 9 -15 12 -12 3 3 0 11 -7 18 -10 9 -11 8 -5 -6z"/>
<path d="M4115 3380 c3 -5 8 -10 11 -10 2 0 4 5 4 10 0 6 -5 10 -11 10 -5 0
-7 -4 -4 -10z"/>
<path d="M840 3200 c0 -5 5 -10 10 -10 6 0 10 5 10 10 0 6 -4 10 -10 10 -5 0
-10 -4 -10 -10z"/>
<path d="M770 3189 c0 -5 10 -9 22 -9 12 0 18 3 14 7 -10 11 -36 12 -36 2z"/>
<path d="M821 3180 c0 -8 4 -22 9 -30 12 -18 12 -2 0 25 -6 13 -9 15 -9 5z"/>
<path d="M626 3153 c7 -4 14 -17 17 -28 5 -16 5 -15 4 4 -1 14 -9 26 -17 28
-10 3 -11 2 -4 -4z"/>
<path d="M709 3149 c-10 -6 -7 -9 14 -9 29 0 35 5 14 13 -8 3 -20 1 -28 -4z"/>
<path d="M496 3139 c4 -8 30 -6 38 2 3 3 -5 5 -19 5 -13 0 -22 -3 -19 -7z"/>
<path d="M811 3114 c0 -11 3 -14 6 -6 3 7 2 16 -1 19 -3 4 -6 -2 -5 -13z"/>
<path d="M501 3113 c-2 -20 16 -24 30 -5 13 15 12 16 -3 4 -13 -10 -17 -10
-21 0 -4 9 -6 9 -6 1z"/>
<path d="M330 3096 c0 -8 4 -17 9 -20 5 -4 7 3 4 14 -6 23 -13 26 -13 6z"/>
<path d="M396 3100 c-17 -6 -18 -7 -3 -13 9 -3 19 -2 23 4 9 15 2 18 -20 9z"/>
<path d="M681 3098 c0 -9 -7 -18 -13 -21 -10 -4 -10 -7 -1 -17 10 -11 13 -10
19 3 3 9 4 24 1 34 -4 15 -5 15 -6 1z"/>
<path d="M606 3065 c-9 -26 -7 -32 5 -12 6 10 9 21 6 23 -2 3 -7 -2 -11 -11z"/>
<path d="M711 3052 c-1 -19 23 -24 60 -13 l34 11 -42 -5 c-28 -3 -43 -1 -46 8
-4 9 -6 9 -6 -1z"/>
<path d="M640 3036 c0 -2 9 -6 20 -9 11 -3 20 -1 20 4 0 5 -9 9 -20 9 -11 0
-20 -2 -20 -4z"/>
<path d="M707 3005 c-6 -15 10 -32 20 -21 4 3 1 6 -5 6 -6 0 -9 7 -6 15 4 8 4
15 1 15 -3 0 -7 -7 -10 -15z"/>
<path d="M797 3007 c-3 -8 1 -14 8 -14 7 0 11 6 8 14 -3 7 -6 13 -8 13 -2 0
-5 -6 -8 -13z"/>
<path d="M660 2999 c0 -5 5 -7 10 -4 6 3 10 8 10 11 0 2 -4 4 -10 4 -5 0 -10
-5 -10 -11z"/>
<path d="M632 2981 c-11 -7 -11 -9 0 -14 9 -3 15 1 15 9 0 8 -1 14 -1 14 -1 0
-7 -4 -14 -9z"/>
<path d="M750 2980 c-8 -5 -10 -10 -5 -10 6 0 17 5 25 10 8 5 11 10 5 10 -5 0
-17 -5 -25 -10z"/>
<path d="M410 2949 c0 -5 5 -7 10 -4 6 3 10 8 10 11 0 2 -4 4 -10 4 -5 0 -10
-5 -10 -11z"/>
<path d="M4537 2802 c-2 -4 12 -23 30 -42 18 -19 33 -30 33 -23 0 15 -58 75
-63 65z"/>
<path d="M16 2763 c6 -4 14 -15 17 -23 5 -11 6 -9 4 4 -1 11 -9 21 -17 23 -10
3 -11 2 -4 -4z"/>
<path d="M280 2736 c0 -2 9 -6 20 -9 11 -3 20 -1 20 4 0 5 -9 9 -20 9 -11 0
-20 -2 -20 -4z"/>
<path d="M372 2270 c-18 -29 -15 -38 4 -12 9 13 14 25 12 27 -2 2 -9 -5 -16
-15z"/>
<path d="M416 2265 c-3 -8 -1 -15 4 -15 6 0 10 7 10 15 0 8 -2 15 -4 15 -2 0
-6 -7 -10 -15z"/>
<path d="M240 2258 c0 -9 5 -20 10 -23 13 -8 13 5 0 25 -8 13 -10 13 -10 -2z"/>
<path d="M275 2249 c-11 -16 -1 -19 13 -3 7 8 8 14 3 14 -5 0 -13 -5 -16 -11z"/>
<path d="M35 2230 c3 -5 8 -10 11 -10 2 0 4 5 4 10 0 6 -5 10 -11 10 -5 0 -7
-4 -4 -10z"/>
<path d="M4540 2221 c0 -6 5 -13 10 -16 6 -3 10 -17 10 -31 0 -13 5 -24 11
-24 5 0 8 -3 6 -7 -2 -5 2 -24 9 -43 13 -34 13 -34 12 32 -1 56 -4 69 -20 73
-10 4 -18 11 -18 16 0 5 -4 9 -10 9 -5 0 -10 -4 -10 -9z"/>
<path d="M281 1974 c0 -11 3 -14 6 -6 3 7 2 16 -1 19 -3 4 -6 -2 -5 -13z"/>
<path d="M300 1940 c0 -5 5 -10 11 -10 5 0 7 5 4 10 -3 6 -8 10 -11 10 -2 0
-4 -4 -4 -10z"/>
<path d="M56 1915 c3 -8 12 -11 19 -9 10 4 15 -5 17 -30 3 -35 3 -35 15 -11 6
14 8 23 3 20 -4 -3 -10 5 -14 18 -3 13 -14 23 -25 24 -13 1 -18 -3 -15 -12z"/>
<path d="M25 1910 c3 -5 8 -10 11 -10 2 0 4 5 4 10 0 6 -5 10 -11 10 -5 0 -7
-4 -4 -10z"/>
<path d="M237 1890 c3 -11 7 -20 9 -20 2 0 4 9 4 20 0 11 -4 20 -9 20 -5 0 -7
-9 -4 -20z"/>
<path d="M37 1883 c-3 -3 1 -12 9 -20 8 -9 18 -13 21 -10 3 3 -1 13 -10 21 -8
8 -17 12 -20 9z"/>
<path d="M111 1853 c0 -4 4 -17 9 -28 8 -19 9 -19 9 2 1 12 -3 25 -9 28 -5 3
-10 3 -9 -2z"/>
<path d="M250 1844 c0 -8 5 -12 10 -9 6 3 10 10 10 16 0 5 -4 9 -10 9 -5 0
-10 -7 -10 -16z"/>
<path d="M287 1853 c-4 -3 -7 -11 -7 -17 0 -6 5 -5 12 2 6 6 9 14 7 17 -3 3
-9 2 -12 -2z"/>
<path d="M175 1820 c3 -5 15 -10 25 -10 10 0 22 5 25 10 4 6 -7 10 -25 10 -18
0 -29 -4 -25 -10z"/>
<path d="M295 1799 c-4 -6 -5 -12 -2 -15 2 -3 7 2 10 11 7 17 1 20 -8 4z"/>
<path d="M181 1784 c0 -11 3 -14 6 -6 3 7 2 16 -1 19 -3 4 -6 -2 -5 -13z"/>
<path d="M378 1793 c6 -2 18 -2 25 0 6 3 1 5 -13 5 -14 0 -19 -2 -12 -5z"/>
<path d="M259 1748 c6 -30 31 -53 31 -28 0 6 -4 8 -10 5 -6 -4 -10 7 -10 24 0
17 -4 31 -9 31 -5 0 -6 -14 -2 -32z"/>
<path d="M361 1764 c0 -11 3 -14 6 -6 3 7 2 16 -1 19 -3 4 -6 -2 -5 -13z"/>
<path d="M340 1756 c0 -8 4 -17 9 -20 5 -4 7 3 4 14 -6 23 -13 26 -13 6z"/>
<path d="M285 1750 c-3 -5 1 -10 9 -10 9 0 16 5 16 10 0 6 -4 10 -9 10 -6 0
-13 -4 -16 -10z"/>
<path d="M325 1710 c-3 -5 -1 -10 4 -10 6 0 11 5 11 10 0 6 -2 10 -4 10 -3 0
-8 -4 -11 -10z"/>
<path d="M358 1708 c5 -5 16 -8 23 -6 8 3 3 7 -10 11 -17 4 -21 3 -13 -5z"/>
<path d="M313 1672 c1 -14 5 -18 11 -12 7 7 6 14 -1 21 -9 9 -12 7 -10 -9z"/>
<path d="M345 1680 c3 -5 11 -10 16 -10 6 0 7 5 4 10 -3 6 -11 10 -16 10 -6 0
-7 -4 -4 -10z"/>
<path d="M50 1651 c0 -9 27 -41 35 -41 2 0 -2 11 -8 25 -12 25 -27 34 -27 16z"/>
<path d="M420 1636 c0 -14 5 -28 10 -31 6 -3 10 5 10 19 0 14 -4 28 -10 31 -6
3 -10 -5 -10 -19z"/>
<path d="M88 1643 c7 -3 16 -2 19 1 4 3 -2 6 -13 5 -11 0 -14 -3 -6 -6z"/>
<path d="M491 1594 c0 -11 3 -14 6 -6 3 7 2 16 -1 19 -3 4 -6 -2 -5 -13z"/>
<path d="M2 1550 c0 -19 2 -27 5 -17 2 9 2 25 0 35 -3 9 -5 1 -5 -18z"/>
<path d="M428 1553 c7 -3 16 -2 19 1 4 3 -2 6 -13 5 -11 0 -14 -3 -6 -6z"/>
<path d="M658 1458 c2 -10 6 -18 8 -18 2 0 8 8 13 18 7 14 6 18 -8 18 -12 0
-17 -6 -13 -18z"/>
<path d="M321 1174 c0 -11 3 -14 6 -6 3 7 2 16 -1 19 -3 4 -6 -2 -5 -13z"/>
<path d="M320 1123 c0 -12 5 -25 10 -28 13 -8 13 15 0 35 -8 12 -10 11 -10 -7z"/>
<path d="M330 1066 c0 -16 18 -31 27 -22 3 3 -2 12 -11 21 -14 14 -16 14 -16
1z"/>
<path d="M310 1006 c0 -36 17 -41 18 -6 0 17 -4 30 -9 30 -5 0 -9 -11 -9 -24z"/>
<path d="M224 976 c-3 -14 -4 -33 -1 -43 3 -12 5 -9 6 10 0 15 6 27 11 27 6 0
10 7 10 15 0 24 -19 17 -26 -9z"/>
<path d="M91 954 c0 -11 3 -14 6 -6 3 7 2 16 -1 19 -3 4 -6 -2 -5 -13z"/>
<path d="M229 907 c-9 -7 -16 -20 -16 -29 0 -13 4 -15 19 -7 10 5 18 12 18 15
0 3 -4 2 -10 -1 -14 -9 -13 8 2 23 15 15 8 15 -13 -1z"/>
<path d="M463 874 c-17 -17 -16 -31 1 -37 10 -4 13 -1 9 10 -3 8 0 19 7 23 6
4 8 10 4 13 -5 3 -15 -1 -21 -9z"/>
<path d="M381 854 c0 -11 3 -14 6 -6 3 7 2 16 -1 19 -3 4 -6 -2 -5 -13z"/>
<path d="M240 850 c0 -5 -6 -7 -14 -4 -9 4 -14 0 -12 -10 4 -26 14 -29 25 -7
7 12 17 18 26 15 8 -4 15 -1 15 5 0 6 -9 11 -20 11 -11 0 -20 -4 -20 -10z"/>
<path d="M495 839 c-4 -6 -5 -12 -2 -15 2 -3 7 2 10 11 7 17 1 20 -8 4z"/>
<path d="M330 800 c0 -5 5 -10 11 -10 5 0 7 5 4 10 -3 6 -8 10 -11 10 -2 0 -4
-4 -4 -10z"/>
<path d="M3146 304 c-3 -8 -2 -13 3 -10 4 3 23 -13 42 -36 19 -23 60 -69 92
-102 31 -33 57 -66 57 -73 0 -7 7 -13 15 -13 9 0 15 -6 13 -12 -3 -20 12 -58
24 -58 6 0 3 12 -6 27 l-17 28 25 -27 c20 -23 34 -28 71 -28 36 0 45 3 45 18
0 15 -2 15 -11 2 -8 -12 -9 -9 -5 12 4 17 2 28 -4 28 -6 0 -8 5 -4 12 4 7 3 8
-5 4 -9 -6 -9 -11 1 -24 11 -13 10 -15 -4 -9 -11 4 -22 0 -28 -11 -10 -14 -11
-13 -6 8 5 23 4 23 -8 7 -13 -16 -14 -16 -27 0 -11 14 -11 15 -1 9 11 -7 12
-4 3 13 -7 12 -9 27 -5 33 5 7 3 8 -5 4 -7 -5 -10 -15 -6 -24 4 -11 -3 -8 -20
8 -19 18 -22 26 -13 33 9 6 8 7 -4 4 -11 -4 -27 8 -50 35 -18 23 -32 45 -30
50 1 5 -2 7 -6 4 -5 -3 -33 19 -61 49 -29 30 -54 55 -55 55 -2 0 -7 -7 -10
-16z m321 -286 c-3 -8 -6 -5 -6 6 -1 11 2 17 5 13 3 -3 4 -12 1 -19z"/>
<path d="M981 168 c0 -9 -7 -18 -13 -21 -10 -3 -10 -8 1 -18 8 -8 11 -9 7 -2
-3 6 -1 13 5 15 6 2 9 13 6 23 -3 15 -5 16 -6 3z"/>
<path d="M1012 160 c0 -14 2 -19 5 -12 2 6 2 18 0 25 -3 6 -5 1 -5 -13z"/>
<path d="M920 135 c-12 -13 -27 -22 -31 -19 -5 3 -9 1 -9 -4 0 -16 49 -11 62
7 12 14 11 14 -4 2 -11 -8 -18 -9 -18 -3 0 6 8 15 17 21 10 5 15 12 12 15 -3
3 -16 -5 -29 -19z"/>
<path d="M1220 146 c0 -2 7 -7 16 -10 8 -3 12 -2 9 4 -6 10 -25 14 -25 6z"/>
<path d="M1207 129 c7 -7 15 -10 18 -7 3 3 -2 9 -12 12 -14 6 -15 5 -6 -5z"/>
<path d="M3510 120 c0 -5 5 -10 11 -10 5 0 7 5 4 10 -3 6 -8 10 -11 10 -2 0
-4 -4 -4 -10z"/>
<path d="M1171 104 c0 -11 3 -14 6 -6 3 7 2 16 -1 19 -3 4 -6 -2 -5 -13z"/>
<path d="M1191 99 c-1 -17 7 -32 22 -42 18 -13 19 -16 5 -16 -38 -2 -10 -31
29 -31 9 0 13 6 9 15 -3 8 -1 15 3 15 5 0 12 -6 14 -12 3 -8 6 -5 6 5 1 10 6
15 11 12 6 -3 10 4 10 16 0 22 0 22 -21 3 -18 -17 -23 -17 -47 -4 -14 9 -29
26 -33 40 l-7 25 -1 -26z"/>
<path d="M1490 110 c0 -5 7 -10 15 -10 8 0 15 -4 15 -10 0 -5 5 -10 10 -10 6
0 5 8 -2 20 -13 21 -38 27 -38 10z"/>
<path d="M860 95 c7 -8 19 -15 26 -15 8 0 14 -4 14 -9 0 -5 9 -11 20 -14 13
-3 20 0 20 8 0 7 6 15 12 17 7 3 -5 5 -26 6 -22 1 -44 6 -50 12 -16 16 -30 12
-16 -5z"/>
<path d="M1011 93 c26 -33 59 -45 59 -22 0 6 -6 9 -13 6 -7 -3 -19 4 -25 14
-7 10 -17 19 -23 19 -8 0 -7 -6 2 -17z"/>
<path d="M1045 100 c-3 -5 -1 -10 4 -10 6 0 11 5 11 10 0 6 -2 10 -4 10 -3 0
-8 -4 -11 -10z"/>
<path d="M1376 71 c7 -14 20 -26 29 -27 15 -2 15 -1 1 15 -10 11 -12 21 -6 27
7 7 2 10 -13 10 -22 0 -23 -2 -11 -25z"/>
<path d="M980 81 c0 -5 7 -14 15 -21 11 -9 13 -16 5 -24 -5 -5 -10 -16 -10
-23 0 -10 17 -13 70 -12 38 1 69 5 68 8 -2 21 4 31 14 25 7 -4 8 -3 4 5 -4 6
-12 9 -17 6 -5 -4 -9 -1 -9 4 0 6 -4 11 -9 11 -5 0 -7 -9 -4 -20 3 -11 0 -20
-6 -20 -6 0 -11 9 -11 21 0 14 -4 18 -12 12 -25 -16 -57 -9 -69 14 -12 23 -29
31 -29 14z"/>
<path d="M1232 77 c18 -19 38 -22 38 -7 0 6 -4 10 -9 10 -5 0 -18 3 -28 7 -17
6 -17 6 -1 -10z"/>
<path d="M3244 48 c0 -27 4 -48 9 -48 9 0 8 49 -2 75 -6 14 -8 5 -7 -27z"/>
<path d="M3430 80 c0 -5 5 -10 11 -10 5 0 7 5 4 10 -3 6 -8 10 -11 10 -2 0 -4
-4 -4 -10z"/>
<path d="M962 50 c13 -20 28 -27 28 -12 0 10 -22 32 -32 32 -5 0 -3 -9 4 -20z"/>
<path d="M1165 39 c-4 -17 -4 -33 -1 -36 3 -4 6 4 6 16 0 12 4 20 9 17 5 -4 7
3 4 14 -7 27 -10 25 -18 -11z"/>
<path d="M1470 59 c0 -5 5 -7 10 -4 6 3 10 8 10 11 0 2 -4 4 -10 4 -5 0 -10
-5 -10 -11z"/>
<path d="M3607 56 c-3 -8 0 -13 6 -12 15 2 22 19 9 24 -5 1 -12 -4 -15 -12z"/>
<path d="M1326 36 c3 -7 -5 -18 -18 -24 -20 -9 -15 -11 32 -10 30 0 47 2 38 5
-10 2 -18 12 -18 22 0 9 -8 17 -19 18 -12 1 -18 -3 -15 -11z"/>
<path d="M1580 41 c0 -5 -3 -16 -6 -25 -3 -9 -2 -16 4 -16 5 0 12 11 14 25 3
14 1 25 -3 25 -5 0 -9 -4 -9 -9z"/>
<path d="M1611 34 c0 -11 3 -14 6 -6 3 7 2 16 -1 19 -3 4 -6 -2 -5 -13z"/>
<path d="M1810 34 c0 -8 5 -12 10 -9 6 4 8 11 5 16 -9 14 -15 11 -15 -7z"/>
<path d="M1921 34 c0 -11 3 -14 6 -6 3 7 2 16 -1 19 -3 4 -6 -2 -5 -13z"/>
<path d="M3222 25 c0 -17 2 -22 5 -12 2 9 2 23 0 30 -3 6 -5 -1 -5 -18z"/>
<path d="M3519 28 c4 -12 14 -24 20 -26 8 -3 7 5 -4 22 -21 32 -27 33 -16 4z"/>
<path d="M1441 24 c0 -11 3 -14 6 -6 3 7 2 16 -1 19 -3 4 -6 -2 -5 -13z"/>
<path d="M1550 26 c0 -8 -8 -17 -17 -19 -14 -4 -12 -5 5 -6 16 -1 22 5 22 19
0 11 -2 20 -5 20 -3 0 -5 -6 -5 -14z"/>
<path d="M2148 33 c7 -3 16 -2 19 1 4 3 -2 6 -13 5 -11 0 -14 -3 -6 -6z"/>
<path d="M1710 10 c0 -5 5 -10 11 -10 5 0 7 5 4 10 -3 6 -8 10 -11 10 -2 0 -4
-4 -4 -10z"/>
<path d="M1895 10 c3 -5 8 -10 11 -10 2 0 4 5 4 10 0 6 -5 10 -11 10 -5 0 -7
-4 -4 -10z"/>
<path d="M1990 10 c0 -5 5 -10 11 -10 5 0 7 5 4 10 -3 6 -8 10 -11 10 -2 0 -4
-4 -4 -10z"/>
<path d="M3570 10 c0 -5 7 -10 16 -10 8 0 12 5 9 10 -3 6 -10 10 -16 10 -5 0
-9 -4 -9 -10z"/>
<path d="M3620 10 c-13 -8 -12 -10 3 -10 9 0 17 5 17 10 0 12 -1 12 -20 0z"/>
<path d="M1608 3 c6 -2 18 -2 25 0 6 3 1 5 -13 5 -14 0 -19 -2 -12 -5z"/>
</g>
</svg>
